<?xml version="1.0" encoding="UTF-8" standalone="no"?>
<!-- Created with Inkscape (http://www.inkscape.org/) -->
<svg xmlns:inkscape="http://www.inkscape.org/namespaces/inkscape" xmlns:rdf="http://www.w3.org/1999/02/22-rdf-syntax-ns#" xmlns="http://www.w3.org/2000/svg" xmlns:xlink="http://www.w3.org/1999/xlink" xmlns:ns1="http://sozi.baierouge.fr" xmlns:cc="http://creativecommons.org/ns#" xmlns:sodipodi="http://sodipodi.sourceforge.net/DTD/sodipodi-0.dtd" xmlns:dc="http://purl.org/dc/elements/1.1/" id="svg2" xml:space="preserve" viewBox="0 0 124.2 39.503" version="1.1" inkscape:version="0.91 r13725">
  <g id="g10" transform="matrix(1.25 0 0 -1.25 0 39.503)">
    <g id="g12">
      <path id="path14" style="fill-rule:evenodd;fill:#414428" d="m93.441 10.282c-0.027 0-0.039-0.012-0.039-0.039-0.16-0.242-0.265-0.492-0.32-0.762 0.668 0.215 1.106 0.27 1.32 0.16 0.266-0.133 0.52-0.597 0.758-1.398-0.133-0.027-0.293-0.082-0.48-0.16-0.184-0.082-0.399-0.172-0.637-0.282-0.453-0.21-0.75-0.332-0.883-0.359-0.531-0.105-1.144-0.148-1.84-0.117-0.828 0.023-1.453 0.051-1.879 0.078-0.132-1.121-1.066-1.547-2.8-1.281v0.64c-0.133-0.507-0.414-0.906-0.84-1.199-0.399-0.293-0.879-0.414-1.442-0.359-0.05-0.801-0.183-1.414-0.398-1.84-0.27-0.563-0.734-0.922-1.402-1.082l-1-0.039c-0.133 0.051-0.25 0.121-0.36 0.199l-0.039 0.039c-0.105 0.133-0.187 0.32-0.238 0.563-0.027 0.105-0.043 0.332-0.043 0.679 0.027 0.692 0.043 1.254 0.043 1.68l0.156 0.121 0.16 0.117 0.282 0.403 0.039-0.641c0-0.426 0.187-0.641 0.562-0.641 0.293 0.028 0.641 0.282 1.039 0.762 0.399 0.477 0.625 0.879 0.68 1.199 0.187-0.375 0.519-0.441 1-0.199 0.348 0.184 0.668 0.449 0.961 0.797 0.64-0.348 1.226-0.414 1.758-0.199 0.082 0.347 0.109 0.586 0.082 0.719 0.214 0.109 0.535 0.132 0.961 0.082 0.453-0.028 0.785 0 1 0.078 0 0.668 0.078 1.066 0.238 1.203 0.082 0.051 0.695 0.012 1.84-0.121h0.082c-0.028 0.027-0.039 0.066-0.039 0.121-0.028 0.16 0.078 0.398 0.316 0.719 0.137 0.187 0.309 0.425 0.52 0.718 0.347 0.535 0.882 0.961 1.601 1.282 0.082 0.027 0.707 0.238 1.879 0.64l-0.117-0.242c1.437 0.16 2.172 0.242 2.199 0.242h0.399c0.109-0.082 0.16-0.32 0.16-0.722-0.028-0.665 0.043-1.637 0.199-2.918-0.637 0.988-0.984 1.558-1.039 1.718-0.106 0.403-0.199 0.723-0.281 0.961-0.133 0.453-0.293 0.707-0.481 0.762-0.344 0.133-1.183-0.203-2.519-1-0.477-0.348-0.848-0.707-1.118-1.082zm-13.757 4.441c-0.536-0.054-0.868-0.066-1-0.043l0.039 0.481 1.957 0.48 0.043 0.039 0.398 0.043 5.32 0.758c-0.398-0.078-0.828-0.172-1.281-0.277-0.238-0.055-0.492-0.121-0.758-0.203-1.336-0.293-2.32-0.547-2.961-0.758-0.718-0.266-1.226-0.426-1.519-0.481-0.078 0-0.16-0.011-0.238-0.039zm-13.364-14c-0.425 0.078-0.84 0.36-1.238 0.84-0.426 0.504-0.707 1.039-0.84 1.598 0.293-0.348 0.774-0.559 1.438-0.637 1.308-0.187 2.093 0.051 2.363 0.719 0.023 0.051 0.039 0.39 0.039 1.019 0.008-0.226 0.219-0.312 0.641-0.261 0.371 0.027 0.613 0.226 0.718 0.601 0.051 0.481 0.094 0.824 0.121 1.039 0.481-0.375 0.918-0.453 1.317-0.238 0.348 0.211 0.574 0.586 0.683 1.117 0.024-0.426 0.305-0.679 0.84-0.758 0.106-0.027 0.481-0.039 1.118-0.039l1.042 0.078-0.042-0.398c0.082-0.293 0.468-0.387 1.16-0.281l0.242 0.039c0.293 0.055 0.519 0.148 0.68 0.281 0.132 0.082 0.308 0.281 0.519 0.598-0.027-0.664 0.254-0.879 0.84-0.637l0.199 0.039 0.762 0.359c-0.082-0.558 0.105-0.867 0.558-0.921h0.282l0.718 0.203c0.082 0.078 0.172 0.144 0.282 0.199-0.215-0.719-0.442-1.215-0.68-1.481-0.215-0.238-0.508-0.414-0.883-0.519l-0.16-0.039c-0.133-0.027-0.277-0.055-0.437-0.082-0.801-0.106-1.11 0.402-0.922 1.519-0.801-1.039-1.879-1.332-3.239-0.879-1.894 0.665-3.015 0.973-3.359 0.918l-0.082 0.403c-0.133-0.801-0.531-1.375-1.199-1.723-0.348 0.082-0.574 0.281-0.68 0.602-0.16-0.215-0.414-1.039-0.762-2.481-0.183-0.719-0.867-0.984-2.039-0.797zm-13.476 2.52h-0.321c0.215 0.133 0.36 0.492 0.438 1.082 0.109 0.664 0.215 1.066 0.32 1.199 0.082 0.078 0.453 0.199 1.121 0.359 0.426 0.079 0.586 0.415 0.481 1 0.879-0.64 1.441-0.652 1.679-0.042 0.133 0.292 0.2 1 0.2 2.121 0.004-0.192 0.14-0.5 0.402-0.918 0.266-0.43 0.387-0.789 0.359-1.082 0.266-0.082 0.52-0.082 0.758 0l0.281 0.718c-0.109-0.613 0.399-0.945 1.52-1 1.094-0.05 1.719 0.161 1.879 0.645v-0.723l1.16-0.039c-0.027-0.16-0.094-0.387-0.199-0.68-0.078-0.292-0.039-0.519 0.121-0.679s0.398-0.227 0.719-0.203c0.32 0 0.558 0.054 0.718 0.16-0.32-0.453-0.48-0.852-0.48-1.199-0.348-0.028-0.652-0.039-0.918-0.039-0.855 0.05-1.332 0.425-1.441 1.117l-0.079-0.278c-0.507-0.16-1.242-0.187-2.203-0.082-1.011 0.11-1.851 0.321-2.519 0.641-0.586 0-1.211 0.105-1.879 0.32 0-0.668-0.106-1.16-0.32-1.48-0.239-0.399-0.707-0.68-1.399-0.84-0.082-0.027-0.148-0.043-0.199-0.043h-0.121c-0.027 0.004-0.055-0.008-0.078-0.035zm-26.961-1.602c-0.535-0.347-1.133-0.519-1.801-0.519l0.039 0.121 0.082 1.64-0.16 0.68 0.238-0.082 0.082-0.039 1.078-0.32c0.696-0.16 1.188-0.227 1.481-0.199 0.027 0.585 0.066 1.039 0.121 1.359 1.117-0.453 2.105-0.641 2.961-0.559 0.293 0.024 0.543 0.051 0.758 0.078 0.133-0.027 0.347-0.132 0.64-0.32 0.348-0.023 0.575 0.082 0.68 0.32 0.16 0.321 0.305 0.52 0.441 0.602 0.051 0.027 0.465 0.051 1.239 0.078 0.535 0 0.773 0.227 0.718 0.684l0.082-0.442c0.372 0.481 0.825 0.868 1.36 1.16 0.535 0.321 0.933 0.387 1.199 0.2l0.84 1.121c0.027-0.453 0-0.977-0.078-1.563-0.188-1.277-0.602-2.144-1.242-2.597-0.051-0.055-0.278-0.133-0.68-0.243-0.32 0.481-0.371 1.094-0.16 1.84h-0.039c-0.239-0.48-0.574-0.89-1-1.238-0.078-0.055-0.16-0.109-0.239-0.16-0.585-0.348-1.203-0.442-1.839-0.281-0.321-0.106-0.75-0.2-1.282-0.282-1.734-0.105-2.718-0.238-2.961-0.398-0.05-0.027-0.414-0.602-1.078-1.719-0.402-0.64-1.054-0.734-1.961-0.281 0.055 0.082 0.121 0.309 0.2 0.68 0.054 0.293 0.148 0.519 0.281 0.679zm-13.403 4.481c0.59-0.531 1.149-0.973 1.68-1.321l0.32 0.641 0.364-0.039 0.597 0.078c-0.05-0.48-0.105-0.812-0.16-1 0.16 0.082 0.266 0.281 0.321 0.602 0.054 0.347 0.121 0.558 0.199 0.64 0.16-0.082 0.722-0.359 1.679-0.84 0.856-0.32 1.243-0.203 1.161 0.36l0.281-0.879c-0.133 0.023-0.266 0.051-0.399 0.078-0.027-0.719-0.32-1.16-0.882-1.32-0.559-0.16-1.051 0.066-1.481 0.679-0.293-1.277-0.89-1.785-1.797-1.519-0.883 0.269-1.226 1.055-1.043 2.359-0.398-0.211-0.84-0.293-1.316-0.238-0.535 0.078-0.977 0.332-1.32 0.762-0.161-0.297-0.641-0.387-1.442-0.282-0.746 0.079-1.64 0.305-2.68 0.68l0.36 0.238c0.027 0.028 0.148 0.133 0.359 0.321 0 0.027 0.149 0.039 0.442 0.039 0.265-0.024 0.574-0.067 0.918-0.117 0.32-0.028 0.613 0 0.882 0.078 0.079 0.027 0.145 0.109 0.2 0.242 0.027 0.133 0.093 0.211 0.199 0.238l0.801-0.121 0.121-0.039c0.133 0 0.304 0.055 0.519 0.16 0.211 0.11 0.387 0.16 0.52 0.16 0.187-0.238 0.387-0.453 0.597-0.64zm-9.359 0.961c-0.051 0.027-0.105 0.039-0.16 0.039h-0.32c-0.133-0.028-0.239-0.078-0.321-0.16-0.105-0.051-0.183-0.149-0.238-0.282-0.078-0.105-0.16-0.343-0.238-0.718-0.137-0.532-0.203-1.735-0.203-3.598-0.051 0.238-0.079 0.586-0.079 1.039 0.028 0.238 0 0.559-0.082 0.961-0.078 0.477-0.117 0.797-0.117 0.957-0.027 0.215 0 1.094 0.078 2.641 0.055 0.773 0.454 1.039 1.2 0.8l1.281-0.64 0.762-0.559c0.343-0.269 0.57-0.375 0.679-0.32l1.68-0.602c-0.375-0.371-1.082-0.386-2.121-0.039-0.828 0.266-1.426 0.426-1.801 0.481z" inkscape:connector-curvature="0"/>
      <path id="path16" style="fill-rule:evenodd;fill:#4e512f" d="m81.562 5.403c0.481-0.215 0.879 0.254 1.2 1.398l0.082 0.282h0.316c0.695-0.106 1.27-0.082 1.723 0.082 0 0.023 0.039 0.515 0.117 1.476 0.027-0.476 0.359-0.746 1-0.797 0.535-0.054 1.066 0.012 1.602 0.2 0.078 0.425 0.093 0.734 0.039 0.918 0.32-0.266 0.734-0.371 1.242-0.321 0.558 0.055 0.879 0.309 0.957 0.762 0.027 0.266-0.238 0.68-0.797 1.238 0.316-0.16 0.664-0.199 1.039-0.117 0.266 0.774-0.016 1.266-0.84 1.481-1.039 0.078-1.707 0.211-2 0.398l1.078 0.281c0-0.054-0.011-0.121-0.039-0.199 0.559 0.133 1.172 0.117 1.84-0.043 0.027-0.148 0.039-0.301 0.039-0.457 0.004 0.152 0.016 0.293 0.043 0.418 0.16-0.027 0.332-0.078 0.52-0.16 0.425-0.184 0.984-0.438 1.679-0.758 0.16 0.078 0.332 0.172 0.52 0.281 0.238 0.16 0.586 0.492 1.039 1 0.426 0.477 0.773 0.785 1.043 0.918 0.156 0.106 0.465 0.16 0.918 0.16 0.187 0 0.574 0.039 1.16 0.122 0.559 0.05 0.934 0.039 1.121-0.043 0.133-0.051 0.277-0.372 0.438-0.957 0.347-1.227 0.562-2.43 0.64-3.602 0.215-2.16-0.011-3.652-0.679-4.481 0.027 0.293 0 0.653-0.082 1.083-0.133 0.613-0.211 0.972-0.239 1.078l-0.281 2.359c-0.078 0.535-0.16 0.973-0.238 1.32-0.137 0.668-0.293 1.055-0.481 1.16-0.109 0.055-0.359 0.028-0.761-0.082-0.426-0.132-0.692-0.199-0.801-0.199-0.559-0.133-0.934-0.254-1.117-0.359-0.454-0.481-0.84-0.801-1.161-0.961 0.266 0.375 0.641 0.734 1.118 1.082 1.336 0.801 2.175 1.133 2.519 1 0.188-0.055 0.348-0.309 0.481-0.762 0.082-0.238 0.175-0.558 0.281-0.957 0.055-0.16 0.402-0.734 1.039-1.719-0.156 1.278-0.227 2.25-0.199 2.918 0 0.399-0.051 0.641-0.16 0.719h-0.399c-0.027 0-0.762-0.082-2.199-0.238l0.117 0.238c-1.172-0.398-1.797-0.613-1.879-0.64-0.719-0.321-1.254-0.747-1.601-1.282-0.211-0.293-0.383-0.531-0.52-0.718-0.238-0.321-0.348-0.559-0.316-0.719 0-0.055 0.011-0.094 0.039-0.121h-0.082c-1.145 0.133-1.758 0.175-1.84 0.121-0.16-0.133-0.238-0.535-0.238-1.199-0.215-0.082-0.547-0.11-1-0.082-0.426 0.054-0.75 0.027-0.961-0.079 0.027-0.132 0-0.375-0.082-0.718-0.532-0.215-1.118-0.149-1.758 0.199-0.293-0.348-0.613-0.613-0.961-0.801-0.481-0.242-0.813-0.176-1 0.199-0.051-0.32-0.281-0.718-0.68-1.199-0.398-0.48-0.746-0.734-1.039-0.762-0.371 0-0.559 0.215-0.559 0.641zm-0.48 0.121 0.082 0.199 0.078-0.082-0.16-0.117zm14.301 2.719h-0.219c-0.242 0.801-0.496 1.265-0.762 1.398-0.214 0.11-0.652 0.055-1.32-0.16 0.055 0.27 0.16 0.52 0.32 0.762l1.641 0.039c0.32-0.32 0.508-0.602 0.559-0.84 0.082-0.32 0.015-0.719-0.2-1.199h-0.019zm-42.856-5c-0.242 0-0.453 0.012-0.64 0.039-0.215 0.027-0.403 0.094-0.563 0.199-0.051 0.055-0.105 0.094-0.156 0.121-0.109 0.106-0.188 0.239-0.242 0.399-0.055-1.438-0.653-2.36-1.801-2.758-1.277-0.453-1.891-0.094-1.84 1.082-0.265-0.695-0.801-1.188-1.597-1.484-0.801-0.293-1.563-0.278-2.282 0.042-0.105 0.641 0.039 1.372 0.442 2.2 0.504 0.906 0.84 1.597 1 2.082-1.227-0.934-2.082-1.508-2.563-1.723-1.144-0.504-1.812-0.184-2 0.961 0-0.105 0.016-0.215 0.039-0.32l-0.199-0.801c-0.051-0.078-0.094-0.156-0.117-0.238-0.028-0.028-0.055-0.067-0.082-0.121l-0.16-0.161c-0.055-0.023-0.106-0.066-0.161-0.117-0.132-0.109-0.265-0.203-0.398-0.281-0.105-0.055-0.199-0.106-0.281-0.16-0.614-0.293-1.215-0.36-1.801-0.199-0.105 0.027-0.199 0.05-0.277 0.078-0.403 0.187-0.696 0.429-0.883 0.722 0.402 0.106 0.629 0.184 0.68 0.239 0.64 0.453 1.054 1.32 1.242 2.601 0.078 0.586 0.105 1.106 0.078 1.559l-0.84-1.121c-0.266 0.187-0.664 0.121-1.199-0.2-0.535-0.292-0.985-0.679-1.36-1.16l-0.082 0.442c0.055-0.453-0.183-0.68-0.718-0.68-0.774-0.027-1.188-0.055-1.239-0.082-0.136-0.078-0.281-0.277-0.441-0.598-0.106-0.242-0.332-0.347-0.68-0.32-0.293 0.184-0.508 0.293-0.64 0.32-0.215-0.027-0.465-0.054-0.758-0.082-0.856-0.082-1.84 0.106-2.961 0.559-0.055-0.316-0.094-0.774-0.121-1.359-0.293-0.028-0.785 0.043-1.481 0.203 0.055 0.211 0.133 0.746 0.243 1.597 0.425-0.215 0.878-0.359 1.359-0.441 0.398-0.078 0.801-0.117 1.199-0.117 0.055 0.316 0.078 0.558 0.078 0.718 0.055-0.265 0.227-0.507 0.524-0.718 0.343-0.293 0.691-0.387 1.039-0.282 0.347 0.083 0.531 0.321 0.558 0.719 0 0.481 0.028 0.84 0.082 1.082 0.266-0.269 0.614-0.48 1.039-0.64 0.426-0.161 0.825-0.227 1.2-0.2 0.453 0.051 0.773 0.227 0.961 0.52 0.16 0.211 0.265 0.613 0.32 1.199 0.16 0 0.547-0.027 1.16-0.082l0.078 0.043c0.188 0.133 0.281 0.305 0.281 0.52-0.027 0.238-0.027 0.425 0 0.558l0.079 0.16c0.187 0.293 0.386 0.465 0.601 0.52l-0.238 0.281c-0.32 0.371-0.508 0.641-0.563 0.801l0.922 0.078c0.321 0.027 0.52 0.149 0.598 0.359 0.082 0.161 0.121 0.563 0.121 1.2l0.801-0.278c0.027-0.402 0.027-1 0-1.8 0.187 0 0.48-0.028 0.879-0.082-0.692-0.266-1.012-0.758-0.961-1.481 0.402-0.184 0.855-0.211 1.363-0.078-0.188-0.293-0.309-0.641-0.363-1.043-0.106-0.504-0.024-0.824 0.242-0.957 0.453-0.27 0.801-0.055 1.039 0.641 0.055-0.43 0.359-0.696 0.922-0.801 0.293-0.055 0.797-0.067 1.519-0.043 0.078 0.402 0.094 0.695 0.039 0.883 0.321-0.188 0.668-0.239 1.039-0.161l0.04 0.239 0.043-0.516c0.425-0.187 0.839-0.07 1.238 0.356 0.027-0.157 0.015-0.477-0.039-0.957 0-0.399 0.093-0.668 0.281-0.801 0.398-0.266 0.73-0.227 1 0.121 0.133 0.183 0.293 0.519 0.477 1 0.214-0.32 0.562-0.586 1.043-0.801 0.531-0.242 0.945-0.226 1.238 0.039 0.242 0.188 0.426 0.668 0.558 1.442 0.641-0.321 1.282-0.426 1.922-0.321 0.719 0.133 1.028 0.559 0.918 1.281 0.348-0.187 0.762-0.242 1.242-0.16 0.079 0.559 0.122 1.414 0.122 2.559 0.105-0.16 0.238-0.281 0.398-0.359 0.32-0.161 0.641-0.243 0.961-0.243 0.348 0.028 0.598 0.149 0.758 0.364 0.215 0.265 0.226 0.972 0.043 2.117 0.16-0.16 0.371-0.16 0.636 0 0.27 0.187 0.457 0.453 0.563 0.801 0.133 0.535 0.133 1.105 0 1.718-0.106 0.375-0.32 0.911-0.641 1.602-0.265 0.641-0.441 1.121-0.519 1.441 0.398-0.32 0.734-0.629 1-0.922 0.851-1.011 1.347-2.281 1.48-3.8v-0.2c0.321 0.133 0.602 0.188 0.84 0.161-0.055-0.239-0.148-0.586-0.281-1.039-0.078-0.403-0.094-0.75-0.039-1.043 0.906-0.157 1.597-0.106 2.082 0.16 0.531 0.269 0.918 0.816 1.156 1.64 0-0.238-0.105-0.734-0.316-1.48-0.161-0.692-0.094-1.145 0.199-1.359 0.16-0.106 0.492-0.118 1-0.04h0.117l0.203 0.04c0.266 0.054 0.453 0.121 0.559 0.199 0-0.028-0.016-0.039-0.039-0.039l-0.043-0.039c-0.024-0.028-0.051-0.055-0.078-0.082-0.082-0.079-0.149-0.161-0.2-0.239l-0.242-0.758c-0.027-0.269-0.012-0.718 0.043-1.359 0.906-0.16 1.414 0.051 1.52 0.641 0.023-0.137 0.023-0.414 0-0.84 0-0.375 0.023-0.656 0.078-0.844 0.828-0.051 1.402 0.016 1.719 0.199 0.347 0.215 0.589 0.711 0.722 1.485 0.133-0.27 0.332-0.496 0.598-0.684 0.32-0.183 0.64-0.211 0.961-0.078 0.347 0.16 0.531 0.426 0.558 0.801 0.055 0.586 0.11 0.945 0.161 1.078l0.48-0.32c0.559-0.293 1.043-0.387 1.441-0.282 0 0.375 0.012 0.657 0.039 0.844 0.028 0.371 0.161 0.613 0.403 0.719 0.133 0.082 0.371 0.066 0.719-0.039 0.347-0.11 0.613-0.121 0.8-0.043l0.078 1.16c0.11 1.016 0.403 1.789 0.879 2.32 0.188 0.188 0.414 0.36 0.684 0.52 0.078 0.32 0.144 0.574 0.199 0.762 0.188 0.503 0.465 0.812 0.84 0.918 0.266 0.082 0.828 0.187 1.68 0.32l2.039 0.398h0.203c0.211 0.028 0.398 0.055 0.559 0.082l-1.961-0.48-0.039-0.481c0.132-0.023 0.464-0.011 1 0.043-0.028-0.027-0.043-0.054-0.043-0.082-0.075-0.258 0.043-0.363 0.363-0.316-0.36-0.059-0.719-0.168-1.082-0.32-0.934-0.59-1.481-1.028-1.641-1.321 0.027 0.106 0.133 0.321 0.32 0.641 0.161 0.266 0.239 0.48 0.239 0.641-0.371 0-0.797-0.122-1.278-0.364-0.722-0.719-1.132-1.773-1.242-3.16-0.027-0.586 0.067-1.637 0.281-3.16-0.187-0.106-0.558-0.172-1.121-0.199-0.504 0-0.851-0.106-1.039-0.317l-0.078-0.363 0.078 0.082c-0.078-0.293-0.054-0.547 0.082-0.758-0.64 0-1.015 0.012-1.121 0.039-0.535 0.078-0.812 0.332-0.84 0.758-0.109-0.531-0.332-0.906-0.679-1.117-0.403-0.215-0.84-0.137-1.321 0.238-0.027-0.215-0.066-0.558-0.121-1.039-0.105-0.375-0.347-0.574-0.718-0.601-0.418-0.051-0.633 0.035-0.641 0.261 0-0.629-0.012-0.968-0.039-1.019-0.266-0.668-1.055-0.906-2.359-0.719-0.668 0.078-1.149 0.293-1.442 0.637-0.055 0.187-0.078 0.468-0.078 0.84l-0.16-0.043c0 0.347 0.16 0.746 0.48 1.199-0.16-0.106-0.402-0.16-0.718-0.16-0.325-0.024-0.563 0.043-0.723 0.203s-0.199 0.387-0.121 0.679c0.109 0.293 0.176 0.52 0.203 0.68l-1.16 0.039v0.723c-0.16-0.484-0.789-0.695-1.883-0.645-1.117 0.055-1.625 0.387-1.52 1l-0.281-0.718c-0.238-0.082-0.492-0.082-0.758 0 0.028 0.293-0.093 0.652-0.359 1.082-0.262 0.418-0.395 0.726-0.398 0.918-0.004-1.121-0.071-1.829-0.204-2.121-0.238-0.614-0.796-0.598-1.679 0.042 0.105-0.585-0.051-0.921-0.481-1-0.664-0.16-1.039-0.281-1.121-0.359-0.105-0.133-0.211-0.535-0.316-1.199-0.082-0.59-0.227-0.949-0.442-1.082zm30.719 17.16c-0.238-0.828-0.746-1.656-1.519-2.48-0.719-0.801-1.536-1.442-2.442-1.922-0.664-0.344-1.133-0.426-1.398-0.239 0.347 0.266 0.933 0.575 1.758 0.918 0.375 0.215 0.589 0.321 0.64 0.321l0.684 0.761 2.316 2.762c0-0.027-0.012-0.066-0.039-0.121zm-2.121-4.68-0.398-0.043c0.16 0.028 0.265 0.067 0.32 0.121l0.078-0.078zm2.082 0.801c0.078 0.024 0.211 0.067 0.398 0.117 0.133 0.028 0.454 0.121 0.961 0.282 0.375 0.132 0.68 0.199 0.918 0.199l-0.437-0.52c1.867 0.293 3.265 0.188 4.199-0.32 0.188-0.106 0.293-0.188 0.32-0.238 0.024-0.055 0.039-0.215 0.039-0.481l-0.039-0.922c-0.269 0.481-0.453 0.84-0.562 1.082-0.078 0.184-0.106 0.305-0.078 0.36 0.027 0.027 0.16 0.066 0.398 0.121-0.668 0.32-1.668 0.41-3 0.277-1.89-0.211-2.984-0.32-3.281-0.32-0.051 0.16 0.004 0.281 0.164 0.363zm-2.562 4.399c-0.051-0.028-0.09-0.055-0.118-0.082-0.054 0.136-0.027 0.375 0.078 0.722 0.11 0.426 0.161 0.692 0.161 0.801 0.027 0.184 0.027 0.344 0 0.477 0 0.109-0.012 0.203-0.039 0.281 0 0.054-0.012 0.105-0.039 0.16-0.083 0.187-0.188 0.332-0.321 0.441-0.344 0.211-0.84 0.305-1.48 0.278-0.371-0.024-0.735-0.078-1.078-0.16-0.055 0-0.11-0.012-0.161-0.04-0.054-0.027-0.109-0.054-0.16-0.078l0.2 0.118 0.16 0.082c0.238 0.48 0.734 0.773 1.48 0.878 0.692 0.082 1.215-0.027 1.559-0.32 0.32-0.32 0.425-0.879 0.32-1.68-0.133-0.906-0.32-1.531-0.559-1.878h-0.003zm-13.637-11.161 0.117-0.238c0.055-0.988-0.238-1.551-0.879-1.683-0.348 0.269-0.332 0.8 0.039 1.601l0.36 0.879 0.363-0.559zm-1.121 0.079 0.199-0.079h-0.16c-0.614-0.054-1.067-0.082-1.36-0.082-0.558-0.023-1.027-0.023-1.398 0-0.16 0.321-0.16 0.602 0 0.844 0.156 0.266 0.426 0.344 0.797 0.238l1.922-0.921zm-1.762 12.121v-1.879c-0.027-0.746-0.094-1.36-0.199-1.84v-0.039c-0.133-0.508-0.387-0.922-0.758-1.242-0.453-0.399-0.801-0.293-1.043 0.32-0.105-0.16-0.211-0.465-0.32-0.918-0.078-0.402-0.211-0.668-0.399-0.801-0.16-0.133-0.465-0.187-0.922-0.16-0.398 0.027-0.703 0.094-0.918 0.199-0.32 0.215-0.507 0.719-0.558 1.52 0 0.535 0.066 1.176 0.199 1.922 0.453-0.856 0.785-1.082 1-0.68 0.027 0.051 0.16 0.57 0.398 1.559 0.083-0.348 0.282-0.575 0.602-0.68 0.348-0.106 0.641 0 0.879 0.32 0.109 0.133 0.16 0.426 0.16 0.879-0.027 0.481-0.039 0.785-0.039 0.922l1.359 0.598 0.122-0.399c0.027 0.028 0.078 0.078 0.16 0.16 0.05 0.051 0.132 0.118 0.238 0.2 0 0.027 0.012 0.039 0.039 0.039zm13.84-16.559 0.203 0.32v-0.281l-0.203-0.039zm-2.039-0.242-0.238-0.039c-0.696-0.106-1.083-0.012-1.161 0.281 0.586 0.051 1.028 0.266 1.321 0.641-0.11-0.375-0.082-0.668 0.078-0.883zm-54.121-1.68c0.332 0.012 0.597 0.117 0.8 0.32 0.133-0.664 0.668-0.972 1.602-0.918l-0.082-1.64-0.039-0.121c-0.375 0-0.734 0.066-1.078 0.199-0.617 0.187-1.055 0.48-1.32 0.883-0.27 0.426-0.243 0.851 0.078 1.277h0.039zm-0.117 3.16h0.16l0.16-0.078v-0.199c0-0.188-0.043-0.348-0.121-0.484-0.215-0.289-0.668-0.438-1.36-0.438-0.507 0-0.855 0.149-1.043 0.438-0.132 0.214-0.226 0.601-0.277 1.16-0.348 0.16-0.562 0.015-0.641-0.438-0.027-0.16-0.027-0.308 0-0.441 0.106-0.028 0.239-0.051 0.399-0.082 0-0.156 0.082-0.344 0.242-0.559 0.211-0.238 0.559-0.387 1.039-0.441 0-0.266 0.066-0.531 0.199-0.797-0.586 0-1.093 0.027-1.519 0.078l-0.281 0.883c0.082-0.563-0.305-0.68-1.161-0.363-0.957 0.484-1.519 0.761-1.679 0.843-0.078-0.082-0.145-0.293-0.2-0.64-0.054-0.321-0.16-0.52-0.32-0.602 0.055 0.188 0.106 0.52 0.16 1l-0.597-0.078-0.364 0.039-0.316-0.641c-0.535 0.348-1.094 0.79-1.684 1.321 0.11 0.082 0.176 0.226 0.204 0.441 0.718-0.613 1.398-0.922 2.039-0.922 0.078 0.348 0.199 0.735 0.359 1.16 0.133-0.132 0.293-0.226 0.48-0.277 0.106-0.027 0.266-0.055 0.481-0.082l0.039 0.359c-0.027 0-0.055 0.016-0.078 0.04 0.023 0.027 0.051 0.042 0.078 0.042l0.039 0.442c0.027-0.137 0.094-0.254 0.199-0.363 0.16 0 0.364-0.012 0.602-0.039 0.453-0.082 0.719-0.012 0.801 0.199 0.027 0.109 0.011 0.242-0.039 0.402-0.11 0.211-0.161 0.332-0.161 0.359 0.078 0.079 0.227 0.106 0.438 0.079 0.109 0 0.269-0.012 0.48-0.039-0.027 0.16-0.425 0.574-1.199 1.242-0.558 0.398-1 0.636-1.32 0.718 0.695-0.109 1.492-0.425 2.398-0.96 0.297-0.161 0.481-0.227 0.563-0.2 0.051 0.028 0.093 0.188 0.121 0.481 0.023 0 0.16-0.028 0.398-0.082 0.133-0.028 0.254-0.012 0.36 0.043-0.215 0.371-0.653 0.984-1.321 1.84-0.187 0.238-0.359 0.464-0.519 0.679-0.051 0.051-0.094 0.106-0.121 0.16-0.106 0.079-0.211 0.172-0.321 0.282-0.183 0.156-0.398 0.332-0.636 0.515-0.16 0.16-0.336 0.321-0.524 0.485l-0.199 0.199 0.199-0.121 0.281-0.203c0.293-0.184 0.629-0.493 1-0.918 0.055-0.082 0.122-0.16 0.2-0.242l0.16-0.118 0.082-0.082c0.265-0.265 0.586-0.707 0.961-1.316 0.105-0.137 0.304-0.309 0.597-0.524l0.481 0.043 1.441 0.118c-0.054-0.184-0.175-0.36-0.359-0.52-0.137-0.105-0.309-0.199-0.523-0.277-0.504-0.215-0.825-0.414-0.957-0.602-0.27-0.375-0.227-0.762 0.117-1.16 0.297-0.348 0.679-0.574 1.16-0.68 0.109-0.027 0.347-0.054 0.723-0.082zm-15.122-1.078c-1.281 0.453-2.425 0.961-3.441 1.52 0.375-0.055 0.977-0.215 1.801-0.481 1.039-0.347 1.746-0.336 2.121 0.039l-1.68 0.602c-0.109-0.055-0.336 0.051-0.679 0.32l-0.762 0.559-1.281 0.64c-0.747 0.239-1.145-0.027-1.2-0.8-0.078-1.547-0.105-2.426-0.078-2.641 0-0.16 0.039-0.48 0.117-0.961 0.082-0.398 0.11-0.719 0.082-0.957 0-0.453 0.028-0.801 0.079-1.043 0 1.867 0.066 3.066 0.203 3.602 0.078 0.375 0.16 0.613 0.238 0.718 0.055 0.133 0.133 0.227 0.238 0.282-0.051-0.239-0.105-0.602-0.156-1.082-0.055-0.504-0.082-1.305-0.082-2.399-0.055-1.094-0.039-1.906 0.039-2.441 0.055-0.532 0.082-0.84 0.082-0.918-1.199 2.613-1.883 4.586-2.039 5.918-0.242 1.816-0.215 3.441 0.078 4.883 0.453 0 1.199-0.149 2.238-0.442 0.43-0.082 0.817-0.308 1.161-0.68 0.402-0.425 0.761-0.773 1.082-1.039 0.32-0.269 0.585-0.441 0.8-0.523l0.957-1.238c0.055 0.105 0.11 0.238 0.161 0.398 0.457-0.504 0.96-0.824 1.523-0.957 0.637-0.16 1.066 0.012 1.277 0.52l0.082 0.277c0.184-0.078 0.414-0.227 0.68-0.438l0.52-0.32-0.801 0.121c-0.106-0.027-0.172-0.109-0.199-0.242-0.055-0.133-0.122-0.215-0.2-0.238-0.269-0.082-0.562-0.11-0.882-0.082-0.344 0.054-0.653 0.093-0.918 0.121-0.293 0-0.442-0.016-0.442-0.039-0.211-0.188-0.332-0.297-0.359-0.321l-0.36-0.238zm35.602 4.801c-0.137-0.934-0.23-1.484-0.281-1.641-0.16-0.613-0.426-1.082-0.801-1.402-0.668-0.613-1.133-0.68-1.398-0.199-0.215 0.375-0.043 0.867 0.519 1.48 0.559 0.586 1.027 0.84 1.398 0.762l0.563 1zm21.078 11c-0.293-0.055-0.508-0.137-0.641-0.242 0.403-0.051 0.801-0.051 1.2 0l-0.117 0.441-0.083-0.082c-0.027 0-0.148-0.039-0.359-0.117zm-15.519-13.402c0-0.161 0.011-0.547 0.039-1.161-0.055-0.531-0.266-0.773-0.641-0.718-0.211 0.027-0.371 0.265-0.48 0.718-0.106 0.508-0.184 0.813-0.239 0.922l1.321 0.239zm-4.082-1.559c-0.024 0.426 0.054 0.879 0.242 1.359 0.16 0.481 0.386 0.868 0.679 1.161 0.161-0.028 0.426-0.043 0.801-0.043 0.024-0.719-0.082-1.383-0.32-2-0.32-0.825-0.774-1.09-1.359-0.797v0.16l-0.043 0.16zm-4.36 4.559c0.215 0.214 0.481 0.347 0.801 0.402l0.762-0.602c-0.321-0.32-0.59-0.535-0.801-0.64-0.32-0.133-0.68-0.121-1.082 0.039-0.024 0.293 0.082 0.562 0.32 0.801zm13.36-0.801c0.16-0.531 0.253-0.852 0.281-0.957 0.054-0.403-0.039-0.696-0.281-0.883-0.266-0.184-0.625-0.16-1.079 0.082-0.453 0.238-0.734 0.492-0.839 0.758l1.918 1zm-35.879-3.52c0.16-0.078 0.347-0.144 0.558-0.199 0.137-0.027 0.309-0.066 0.524-0.117-0.321 0.129-0.68 0.238-1.082 0.316z" inkscape:connector-curvature="0"/>
      <path id="path18" style="fill-rule:evenodd;fill:#585d3b" d="m77.801 23.841c-0.098-0.075-0.192-0.145-0.278-0.219 0.055 0.051 0.094 0.109 0.118 0.179 0.054 0.028 0.109 0.04 0.16 0.04zm2.84-2.918c0.242 0.347 0.429 0.972 0.562 1.878 0.106 0.801 0 1.36-0.32 1.68-0.344 0.293-0.863 0.402-1.559 0.32-0.75-0.105-1.242-0.398-1.48-0.878l-0.16-0.082c0.558 0.8 1.211 1.308 1.957 1.523 0.91 0.266 1.562-0.066 1.961-1 0.293-0.641 0.375-1.773 0.242-3.402-0.028-0.504-0.254-1.149-0.684-1.918-0.265-0.481-0.48-0.895-0.637-1.243 0-0.132-0.015-0.293-0.043-0.48 0.133 0.137 0.293 0.281 0.481 0.441l-0.68-0.761c-0.054 0-0.265-0.106-0.64-0.321-0.825-0.343-1.414-0.652-1.758-0.918 0.265-0.187 0.73-0.105 1.398 0.239 0.907 0.48 1.719 1.121 2.442 1.922 0.773 0.824 1.281 1.652 1.519 2.48 0.774 0.879 1.453 1.758 2.039 2.641 0.266 0.425 0.559 1.05 0.879 1.879 0.43 0.878 0.707 1.546 0.844 2 0.211 0.668 0.383 1.8 0.519 3.398-0.187-2.934-0.296-4.48-0.32-4.641-0.293-2.132-0.933-3.824-1.922-5.078-1.437-1.84-2.586-3.121-3.437-3.84-0.481-0.398-1.067-0.8-1.762-1.199h-0.16l-2.039-0.402c-0.856-0.133-1.414-0.238-1.68-0.32-0.375-0.106-0.652-0.411-0.84-0.918-0.054-0.188-0.121-0.442-0.203-0.758-0.265-0.16-0.492-0.336-0.68-0.524-0.48-0.531-0.773-1.304-0.878-2.316l-0.082-1.16c-0.184-0.082-0.454-0.067-0.797 0.039-0.348 0.105-0.586 0.121-0.723 0.039-0.238-0.106-0.371-0.348-0.398-0.719-0.028-0.187-0.04-0.465-0.04-0.84-0.402-0.105-0.882-0.015-1.441 0.282l-0.48 0.316c-0.051-0.133-0.106-0.492-0.161-1.078-0.027-0.375-0.21-0.641-0.558-0.801-0.32-0.133-0.641-0.109-0.961 0.078-0.266 0.188-0.465 0.414-0.598 0.684-0.136-0.774-0.375-1.27-0.722-1.485-0.317-0.183-0.891-0.25-1.719-0.199-0.051 0.188-0.078 0.469-0.078 0.844 0.023 0.426 0.023 0.703 0 0.84-0.11-0.59-0.617-0.801-1.52-0.641-0.054 0.641-0.07 1.09-0.043 1.359l0.239 0.758c0.054 0.082 0.121 0.16 0.203 0.242 0.023 0.028 0.05 0.051 0.078 0.079l0.039 0.043c0.027 0 0.043 0.011 0.043 0.039-0.11-0.082-0.293-0.149-0.563-0.2l-0.199-0.043h-0.121c-0.508-0.078-0.84-0.066-1 0.04-0.293 0.214-0.359 0.667-0.199 1.363 0.215 0.746 0.32 1.238 0.32 1.476-0.242-0.824-0.629-1.371-1.16-1.636-0.481-0.27-1.172-0.321-2.082-0.161-0.051 0.293-0.039 0.641 0.043 1.04 0.133 0.453 0.226 0.8 0.281 1.039-0.242 0.027-0.523-0.024-0.844-0.161v0.2c-0.132 1.523-0.625 2.789-1.48 3.8-0.266 0.293-0.598 0.602-1 0.922 0.082-0.32 0.254-0.8 0.523-1.441 0.317-0.691 0.532-1.227 0.637-1.602 0.137-0.613 0.137-1.183 0-1.718-0.105-0.348-0.293-0.614-0.559-0.797-0.265-0.16-0.48-0.16-0.64 0 0.187-1.149 0.176-1.856-0.039-2.121-0.16-0.215-0.414-0.332-0.762-0.36-0.316 0-0.637 0.078-0.957 0.239-0.16 0.082-0.293 0.203-0.402 0.359 0-1.145-0.039-2-0.118-2.559-0.48-0.082-0.894-0.027-1.242 0.16 0.106-0.718-0.199-1.148-0.918-1.281-0.64-0.105-1.281 0-1.922 0.321-0.132-0.774-0.32-1.254-0.558-1.442-0.293-0.265-0.707-0.281-1.242-0.039-0.477 0.215-0.825 0.481-1.039 0.801-0.188-0.481-0.348-0.817-0.481-1-0.265-0.348-0.598-0.387-1-0.121-0.183 0.133-0.277 0.402-0.277 0.801 0.051 0.48 0.066 0.8 0.039 0.957-0.402-0.426-0.813-0.543-1.242-0.356l-0.039 0.516-0.039-0.239c-0.375-0.078-0.719-0.027-1.04 0.161 0.051-0.188 0.04-0.481-0.042-0.883-0.719-0.024-1.227-0.012-1.52 0.043-0.559 0.105-0.863 0.371-0.918 0.801-0.242-0.696-0.586-0.911-1.039-0.641-0.27 0.133-0.348 0.453-0.242 0.957 0.054 0.402 0.176 0.75 0.359 1.043-0.504-0.133-0.957-0.109-1.359 0.078-0.055 0.719 0.265 1.215 0.961 1.481-0.403 0.054-0.696 0.082-0.879 0.082 0.023 0.8 0.023 1.398 0 1.8l-0.801 0.278c0-0.637-0.039-1.039-0.121-1.2-0.078-0.21-0.281-0.332-0.602-0.359l-0.918-0.078c0.055-0.16 0.239-0.43 0.559-0.801l0.242-0.281c-0.215-0.055-0.414-0.227-0.601-0.52l-0.079-0.16c-0.027-0.133-0.027-0.32 0-0.558 0-0.215-0.093-0.387-0.281-0.52l-0.078-0.043c-0.617 0.055-1 0.082-1.16 0.082-0.055-0.586-0.16-0.988-0.32-1.199-0.188-0.293-0.508-0.469-0.961-0.52-0.375-0.027-0.774 0.039-1.2 0.2-0.429 0.16-0.773 0.371-1.042 0.64-0.051-0.242-0.079-0.601-0.079-1.082-0.027-0.398-0.214-0.64-0.558-0.719-0.348-0.105-0.695-0.015-1.043 0.282-0.293 0.211-0.465 0.453-0.52 0.718 0-0.16-0.027-0.402-0.078-0.718-0.402 0-0.801 0.039-1.199 0.117-0.481 0.082-0.934 0.226-1.363 0.441-0.106-0.851-0.184-1.386-0.239-1.597l-1.082 0.316-0.078 0.121v-0.082l-0.238 0.082 0.16-0.683c-0.933-0.051-1.469 0.253-1.601 0.921-0.204-0.203-0.473-0.312-0.801-0.32 0.027 0.055 0.054 0.094 0.082 0.121l0.039 0.039c0.027 0.028 0.066 0.055 0.121 0.082 0.027 0.051 0.066 0.09 0.117 0.118l0.043 0.039c0.024 0.027 0.067 0.054 0.117 0.082l0.082 0.082c0.106 0.078 0.211 0.144 0.321 0.199-0.27 0.051-0.629 0.082-1.082 0.082l-1-0.043h-0.2c-0.132 0.266-0.199 0.535-0.199 0.801-0.48 0.054-0.828 0.199-1.039 0.441-0.16 0.211-0.242 0.399-0.242 0.559-0.16 0.027-0.293 0.054-0.399 0.082-0.027 0.133-0.027 0.277 0 0.437 0.079 0.453 0.293 0.602 0.641 0.442 0.051-0.563 0.145-0.95 0.277-1.161 0.188-0.292 0.536-0.441 1.04-0.441 0.695 0 1.148 0.149 1.363 0.441 0.238-0.082 0.492-0.054 0.758 0.083 0.293 0.132 0.519 0.343 0.679 0.636-0.078-0.183-0.093-0.492-0.039-0.918 0.321-0.187 0.653-0.226 1-0.121l0.039 0.082 0.039-0.402c0.243-0.133 0.481-0.16 0.723-0.078 0.078 0.32 0.106 0.531 0.078 0.64 0.242-0.293 0.563-0.562 0.961-0.8 0.481-0.293 0.84-0.375 1.082-0.239 0.211 0.106 0.332 0.317 0.359 0.637 0 0.402 0.012 0.707 0.04 0.922 0.16-0.133 0.386-0.348 0.679-0.641 0.266-0.242 0.535-0.347 0.801-0.32 0.16 0.586 0.121 1.176-0.121 1.762 0.453-0.668 1.227-1 2.32-1 0.078 0.773 0.078 1.558 0 2.359 0.239-0.242 0.52-0.441 0.84-0.602 0.399-0.16 0.719-0.187 0.961-0.078 0.32 0.133 0.492 0.453 0.52 0.957 0 0.586 0.011 1 0.039 1.243 0.187-0.133 0.519-0.215 1-0.243 0.214 0.801-0.321 1.668-1.598 2.602 0.211 0.051 0.344 0.16 0.398 0.32 0.079 0.211 0.012 0.453-0.199 0.719 0.828-0.238 1.332-0.215 1.52 0.078 0.105 0.188 0.133 0.375 0.078 0.563-0.051 0.214-0.172 0.371-0.36 0.48 0.536-0.055 0.856 0.16 0.961 0.641 0.079 0.453-0.082 0.906-0.48 1.359 0.16 0.078 0.375 0.094 0.641 0.039 0.16-0.293 0.359-0.785 0.601-1.48l0.277-0.957c0.028 0.156 0.055 0.277 0.082 0.355 0.051 0.27 0.079 0.695 0.079 1.281s0.015 1.028 0.039 1.321c0.16-0.16 0.281-0.453 0.363-0.879 0.051-0.215 0.105-0.508 0.16-0.879l0.039-0.121c0.028 0.054 0.067 0.105 0.117 0.16 0.028-0.266 0.082-0.52 0.161-0.762 0.027-0.078 0.054-0.16 0.082-0.238 0.078-0.188 0.144-0.359 0.199-0.52 0.133-0.265 0.32-0.535 0.558-0.8 0.055 0.16 0.028 0.386-0.078 0.679-0.16 0.426-0.238 0.668-0.238 0.719-0.109 0.453-0.148 1.027-0.121 1.723 0.078 0.773 0.121 1.343 0.121 1.718 0.051 1.813 0.519 3.454 1.398 4.922-0.453-1.308-0.707-2.976-0.761-5 0-0.722 0.109-1.613 0.32-2.679 0.082-0.321 0.176-0.75 0.281-1.282 0.106 1.282 0.239 2.321 0.399 3.118l1.679-0.36c-0.691-0.879-0.984-1.64-0.879-2.277 0.403-0.137 0.907-0.149 1.52-0.043-0.344-0.426-0.598-0.758-0.758-1-0.293-0.399-0.48-0.774-0.562-1.117 0.136-0.028 0.547-0.082 1.242-0.16 0.027-0.11 0.027-0.403 0-0.883 0-0.348 0.078-0.598 0.238-0.758l-0.558-1c-0.375 0.078-0.84-0.176-1.399-0.762-0.562-0.613-0.734-1.105-0.523-1.48 0.269-0.481 0.734-0.414 1.402 0.199 0.371 0.32 0.641 0.789 0.801 1.402 0.051 0.157 0.144 0.707 0.277 1.641l0.082-0.043c0.266-0.211 0.547-0.254 0.84-0.117 0.266 0.105 0.492 0.293 0.68 0.558 0.05-0.882 0.254-1.375 0.597-1.48 0.375-0.133 0.75 0.242 1.121 1.121 0.454-0.91 1.215-1.27 2.282-1.082 0 0.586 0.039 1.039 0.121 1.359 0.371-0.613 0.851-0.918 1.437-0.918 0.082 0.184 0.121 0.438 0.121 0.758 0 0.403 0.012 0.653 0.039 0.762 0.375-0.32 0.774-0.574 1.2-0.762 0.59-0.238 1.043-0.265 1.363-0.078 0.449 0.266 0.57 0.731 0.359 1.399-0.16 0.535-0.425 0.921-0.8 1.16 0.293-0.133 0.851-0.282 1.679-0.442 0.133 0.641 0.055 1.16-0.238 1.563-0.242 0.316-0.707 0.597-1.402 0.84 0.214 0.027 0.613 0 1.199-0.082 0.508 0 0.855 0.109 1.043 0.32 0.531 0.668 0.078 1.238-1.36 1.719 0.157 0.054 0.797 0.121 1.918 0.203 0.293 0.719 0.133 1.238-0.48 1.558-0.508 0.293-1.172 0.387-2 0.282 0.641 0.16 1.066 0.476 1.281 0.957 0.238 0.562 0.106 1.054-0.402 1.48-0.211 0.188-0.52 0.266-0.918 0.242-0.453-0.027-0.762 0-0.918 0.078-0.16 0.082-0.43 0.293-0.801 0.641-0.375 0.32-0.656 0.535-0.84 0.641 0.426 0.293 1.09 0.398 2 0.32l0.598-0.359c0 0.105-0.012 0.211-0.039 0.316 0.773-0.078 1.492-0.238 2.16-0.477 0.691-0.242 1.133-0.507 1.32-0.8l0.118 0.16c0.027-0.055 0.203-0.613 0.519-1.68 0.75-0.48 1-0.855 0.762-1.121 0.535 0 0.867 0.371 1 1.121 0.027 0.078 0.066 0.625 0.121 1.641 0.183-0.055 0.637-0.215 1.359-0.481 0.692-0.215 1.145-0.226 1.36-0.043 0.211 0.188 0.32 0.524 0.32 1-0.027 0.535-0.027 0.907 0 1.121 0.957-0.238 1.664-0.304 2.117-0.199 0 0.692 0.043 1.215 0.121 1.559 0.215 0.027 0.426 0.027 0.641 0 0.16-0.024 0.32-0.063 0.48-0.117v-0.918c0.426 0.453 0.817 1.226 1.16 2.32 0.481 1.652 0.762 3.398 0.84 5.238 0-0.293 0.067-0.679 0.2-1.16 0.187-0.586 0.269-1.039 0.242-1.359 0-1.492-0.067-2.602-0.2-3.321-0.187-0.906-0.667-1.812-1.441-2.718-0.453-0.481-0.785-0.84-1-1.082 0.266 0.132 0.531 0.214 0.801 0.242h0.359l-0.121-1.043c-0.183-1.145-0.598-2.117-1.238-2.918 0.105 0.48 0.172 1.094 0.199 1.84v1.879c-0.027 0-0.039-0.012-0.039-0.039-0.109-0.082-0.187-0.149-0.242-0.2-0.078-0.082-0.133-0.132-0.16-0.16l-0.118 0.399-1.359-0.598c0-0.137 0.012-0.441 0.039-0.922 0-0.453-0.054-0.746-0.16-0.879-0.242-0.32-0.535-0.43-0.879-0.32-0.32 0.105-0.523 0.332-0.601 0.68-0.243-0.989-0.375-1.508-0.399-1.559-0.215-0.402-0.551-0.176-1 0.68-0.137-0.746-0.203-1.387-0.203-1.922 0.055-0.801 0.242-1.305 0.562-1.52 0.211-0.105 0.52-0.172 0.918-0.199 0.454-0.027 0.762 0.027 0.922 0.16 0.184 0.133 0.317 0.399 0.399 0.801 0.105 0.449 0.215 0.758 0.32 0.918 0.238-0.613 0.586-0.719 1.039-0.32 0.375 0.32 0.625 0.734 0.762 1.242v0.039l1.398 0.519c-0.851-0.828-1.48-1.464-1.879-1.921-0.668-0.825-0.867-1.625-0.601-2.399 0.398 0.027 0.801 0.266 1.199 0.719 0.082 0.109 0.359 0.508 0.84 1.203 0.16-0.215 0.094-0.828-0.199-1.84-0.321-1.094-0.438-1.801-0.36-2.121 0.348-0.133 0.653-0.082 0.922 0.16 0.16 0.133 0.371 0.387 0.637 0.758 0-0.078-0.024-0.625-0.078-1.641-0.082-0.851-0.055-1.464 0.078-1.839l-1.918 0.921c-0.375 0.106-0.641 0.028-0.801-0.242-0.16-0.238-0.16-0.519 0-0.84 0.375-0.027 0.84-0.027 1.402 0 0.293 0 0.747 0.028 1.36 0.082 0.078-0.187 0.199-0.293 0.359-0.32-0.375-0.801-0.386-1.332-0.039-1.601 0.637 0.132 0.934 0.695 0.879 1.683l-0.121 0.238c0.16 0.239 0.242 0.707 0.242 1.399 0 0.801 0.012 1.226 0.039 1.281 0.242-0.027 0.547-0.215 0.922-0.559 0.371-0.375 0.707-0.574 1-0.601 0.504-0.051 0.813 0.027 0.918 0.242 0.055 0.371 0.106 0.707 0.16 1 0.16-0.16 0.453-0.441 0.879-0.844 0.426-0.316 0.789-0.371 1.082-0.156 0.028 0.906 0.078 1.57 0.16 2h0.801c0.344 0 0.586 0.051 0.719 0.156 0.348 0.243 0.492 0.645 0.437 1.203-0.05 0.454-0.199 0.852-0.437 1.2 0.238 0.133 0.758 0.32 1.558 0.558 0.641 0.266 0.907 0.657 0.801 1.16-0.453 0.188-1.105 0.282-1.961 0.282-0.961-0.028-1.652-0.028-2.078 0 0.664-0.028 1.094 0.133 1.278 0.48 0.132 0.238 0.175 0.719 0.121 1.438h-0.481c0.028 0.187 0.16 0.629 0.399 1.32 0.214 0.535 0.253 0.977 0.121 1.32-0.239 0.055-0.575 0.055-1 0-0.508-0.027-0.852-0.039-1.039-0.039 0.05 0.293-0.055 0.653-0.321 1.078-0.187 0.321-0.082 0.641 0.321 0.961l0.281 0.16c0.238-0.265 0.32-0.64 0.238-1.121 0.453 0.961 1.133 1.188 2.043 0.684 0.906-0.508 0.945-1.215 0.117-2.121 0.934 0.238 1.426 0.055 1.481-0.563 0.027-0.476-0.199-1.132-0.68-1.957 0.641 0.321 1.16 0.254 1.559-0.199 0.453-0.535 0.547-1.441 0.281-2.723 0.215 0.907 0.68 1.602 1.398 2.082 0.59 0.372 1.11 0.399 1.563 0.079 0.078 0.214 0.172 0.453 0.281 0.718 0.184 0.457 0.332 0.868 0.438 1.243zm-1.278-8.52 0.039 0.039 0.442 0.32 1.398 0.481-1.441-0.879-0.438 0.039zm1.481 2.438c-0.321-1.012-0.563-1.625-0.723-1.84l-0.719-0.559-0.082-0.039-0.718-0.039v-0.402l-2.879-1.481 1.32-0.039c0.023-0.187-0.016-0.48-0.121-0.879-0.106-0.402-0.16-0.695-0.16-0.883-0.375 0.215-0.668 0.043-0.879-0.519-0.188-0.531-0.203-0.945-0.043-1.238 0.16-0.348 0.43-0.497 0.801-0.442 0.402 0.055 0.668 0.254 0.8 0.598 0-0.692 0.559-0.957 1.68-0.797s1.629 0.508 1.52 1.039c0.242-0.242 0.562-0.414 0.961-0.52 0.453-0.105 0.839-0.105 1.16 0-0.321-1.148-0.719-1.613-1.2-1.398l-0.042 0.637-0.278-0.399-0.082 0.082-0.082-0.199-0.156-0.121v0.398l-0.16-0.519c-0.11-0.051-0.203-0.117-0.282-0.199l-0.722-0.2h-0.278c-0.453 0.051-0.64 0.36-0.562 0.918l-0.758-0.359v0.281l-0.199-0.32c-0.586-0.242-0.867-0.027-0.84 0.641-0.215-0.321-0.387-0.52-0.519-0.602-0.161-0.133-0.387-0.226-0.684-0.281-0.16 0.215-0.184 0.508-0.078 0.883-0.293-0.375-0.735-0.586-1.32-0.641l0.039 0.398-1.039-0.078c-0.133 0.211-0.161 0.465-0.082 0.758l-0.079-0.078 0.079 0.359c0.187 0.211 0.535 0.317 1.042 0.317 0.559 0.027 0.934 0.094 1.118 0.203-0.211 1.519-0.305 2.574-0.278 3.16 0.106 1.387 0.52 2.438 1.239 3.16 0.48 0.239 0.906 0.36 1.281 0.36 0-0.161-0.082-0.375-0.242-0.641-0.184-0.32-0.293-0.535-0.321-0.641 0.161 0.293 0.707 0.735 1.641 1.321 0.363 0.156 0.723 0.261 1.082 0.32-0.316-0.047-0.438 0.059-0.359 0.316 0.425 0.086 0.824 0.153 1.199 0.204h0.004zm2.359 1.683c-0.16-0.082-0.215-0.203-0.16-0.363 0.293 0 1.387 0.109 3.281 0.32 1.332 0.133 2.332 0.043 3-0.277-0.242-0.055-0.375-0.094-0.402-0.121-0.027-0.055 0-0.176 0.082-0.36 0.105-0.242 0.293-0.601 0.558-1.082l0.04 0.922c0 0.266-0.012 0.426-0.04 0.481-0.027 0.05-0.132 0.132-0.32 0.238-0.933 0.508-2.332 0.613-4.199 0.32l0.441 0.52c-0.242 0-0.546-0.067-0.922-0.199-0.507-0.161-0.824-0.254-0.957-0.282-0.191-0.05-0.324-0.093-0.402-0.117zm-2.082-0.801-0.078 0.078c-0.055-0.054-0.16-0.093-0.32-0.121l-0.043-0.039c-0.157-0.027-0.344-0.05-0.559-0.078 0.055 0.028 0.106 0.051 0.16 0.078 0.907 0.348 1.469 0.575 1.68 0.68 0.187 0.082 0.68 0.375 1.48 0.883 0.614 0.371 1.11 0.597 1.481 0.679 1.148 0.184 2.254 0.04 3.32-0.441 1.121-0.508 1.746-1.32 1.879-2.441 0.055-0.399 0.082-0.918 0.082-1.559v-1.039c-0.023-0.125-0.039-0.266-0.039-0.422-0.004 0.156-0.016 0.313-0.043 0.461-0.105 0.801-0.437 1.668-1 2.602-0.16 0.293-0.277 0.519-0.359 0.679-0.184 0.293-0.36 0.493-0.52 0.598-0.16 0.082-0.547 0.121-1.16 0.121-0.344 0.027-0.984-0.051-1.918-0.238 0.453 0.105 0.879 0.199 1.281 0.277l-5.324-0.758zm2.402-1.121c0.051-0.054 0.09-0.133 0.118-0.238v-0.121c0.695 0.32 1.386 0.48 2.082 0.48h0.281c0.266 0 0.531-0.027 0.797-0.082 0.508-0.105 0.894-0.293 1.16-0.558l0.199-0.282c0.188-0.293 0.242-0.664 0.16-1.121l-1.078-0.277c0.293-0.187 0.961-0.32 2-0.402 0.828-0.211 1.106-0.707 0.84-1.477-0.371-0.082-0.719-0.043-1.039 0.117 0.559-0.558 0.824-0.972 0.801-1.238-0.082-0.453-0.403-0.707-0.961-0.762-0.508-0.05-0.922 0.055-1.242 0.321 0.054-0.188 0.043-0.493-0.039-0.922-0.532-0.184-1.067-0.25-1.598-0.199-0.641 0.054-0.977 0.32-1 0.8-0.082-0.961-0.121-1.453-0.121-1.48-0.453-0.16-1.028-0.188-1.719-0.082l0.199 0.281c0.133 0.32 0.106 0.652-0.082 1-0.187 0.348-0.437 0.535-0.758 0.563 1.68 0.183 2.774 0.343 3.282 0.48 0.078 0.531-0.188 0.891-0.801 1.078-0.723 0.11-1.215 0.215-1.481 0.32v0.04c0.188 0.082 0.586 0.175 1.2 0.281 0.531 0.105 0.945 0.265 1.238 0.48-0.051 0.641-0.371 1-0.957 1.078l0.598 0.121c0.136 0.293 0.175 0.536 0.121 0.723-0.215 0.156-0.801 0.199-1.762 0.117-0.906-0.05-1.813-0.187-2.719-0.398l2.281 1.359zm-74.082-7.64c-0.214-0.508-0.64-0.68-1.281-0.52-0.558 0.133-1.066 0.453-1.519 0.961-0.051-0.16-0.106-0.293-0.161-0.402l-0.957 1.242c-0.214 0.082-0.48 0.254-0.8 0.519h0.039c0.32 0.051 0.625-0.093 0.922-0.441 0.023-0.027 0.05-0.051 0.078-0.078-0.453 0.746-0.602 1.293-0.442 1.637 0.11 0.296 0.43 0.457 0.961 0.484l-0.039-0.043c-0.453-0.238-0.668-0.57-0.64-1 0.375-0.238 0.8-0.227 1.281 0.043l0.039-1.16c0.105 0.023 0.293 0.023 0.558 0 0.055-0.16 0.11-0.43 0.161-0.801 0.109-0.293 0.281-0.492 0.519-0.602 0.215 0.215 0.32 0.536 0.32 0.961 0.403-0.398 0.723-0.668 0.961-0.8zm6.481 0.961 0.68-0.243c0.132-0.023 0.242 0.043 0.32 0.2 0.082 0.16 0.172 0.242 0.281 0.242-0.426 0.32-0.789 0.601-1.082 0.84-0.183 0.16-0.332 0.293-0.437 0.402-1.227 1.09-2.137 1.797-2.723 2.117 1.281-0.265 2.867-1 4.762-2.199 0.132 0.055 0.254 0.094 0.359 0.121h0.121c-0.109 0.16-0.226 0.32-0.359 0.477-0.348 0.402-0.617 0.711-0.801 0.921-0.641 0.614-1.105 1.094-1.402 1.442-0.321 0.398-0.559 0.707-0.719 0.918-0.293 0.375-0.574 0.652-0.84 0.84-0.879 0.668-2.094 1.441-3.641 2.32-0.961 0.586-1.691 1-2.199 1.242-0.558 0.16-0.988 0.305-1.281 0.438 0.695 0.105 1.922-0.188 3.68-0.879 1.386-0.535 2.336-0.989 2.839-1.36 0.508-0.402 1.11-0.921 1.801-1.562 0.321-0.32 0.668-0.652 1.039-1l-0.199 0.121 0.199-0.199c0.188-0.16 0.364-0.321 0.524-0.481 0.16-0.133 0.316-0.293 0.476-0.48 0.11-0.106 0.215-0.215 0.321-0.32 0.054-0.051 0.136-0.133 0.242-0.239 0 0.024 0.012 0.051 0.039 0.078 0.16-0.214 0.332-0.441 0.519-0.679 0.668-0.852 1.106-1.465 1.321-1.84-0.106-0.055-0.227-0.067-0.36-0.039-0.242 0.051-0.375 0.078-0.398 0.078-0.027-0.293-0.066-0.453-0.121-0.481-0.082-0.027-0.266 0.043-0.563 0.204-0.906 0.531-1.703 0.851-2.398 0.957 0.32-0.079 0.762-0.321 1.32-0.719 0.774-0.668 1.172-1.082 1.199-1.238-0.214 0.023-0.371 0.039-0.48 0.039-0.211 0.027-0.359 0-0.438-0.082 0-0.028 0.051-0.145 0.161-0.36 0.05-0.16 0.066-0.293 0.039-0.398-0.082-0.215-0.348-0.281-0.801-0.199-0.238 0.023-0.442 0.039-0.602 0.039-0.105 0.105-0.172 0.226-0.199 0.359l-0.039-0.438c-0.027 0-0.055-0.015-0.078-0.042 0.023-0.024 0.051-0.04 0.078-0.04l-0.039-0.359c-0.215 0.027-0.375 0.055-0.481 0.082-0.187 0.051-0.347 0.145-0.48 0.277-0.16-0.425-0.281-0.812-0.359-1.16-0.641 0-1.321 0.309-2.039 0.922-0.028-0.215-0.094-0.359-0.204-0.441-0.21 0.187-0.41 0.402-0.597 0.64-0.133 0-0.309-0.05-0.52-0.16-0.215-0.105-0.386-0.16-0.519-0.16l-0.121 0.039-0.52 0.32c0.16 0.133 0.184 0.481 0.078 1.04 0.215-0.532 0.735-0.879 1.563-1.04 0.078 0.426 0.094 0.735 0.039 0.922 0.558-0.347 1.254-0.547 2.078-0.601 0.055 0.347-0.094 0.679-0.438 1-0.136 0.133-0.468 0.375-1 0.719 0.559 0.16 1.332 0.015 2.321-0.438l1.039-0.961c-0.028 0.106-0.016 0.266 0.039 0.481zm47.32 13.441c0.215 0.078 0.332 0.117 0.36 0.117l0.082 0.082 0.117-0.441c-0.399-0.051-0.797-0.051-1.199 0 0.132 0.105 0.347 0.187 0.64 0.242zm-19.601-14.961v-0.359l0.043 0.199v-0.16c0.586-0.293 1.039-0.028 1.359 0.8 0.238 0.614 0.348 1.282 0.32 2-0.375 0-0.64 0.012-0.801 0.04-0.292-0.293-0.519-0.68-0.679-1.161-0.188-0.48-0.266-0.933-0.242-1.359zm4.082 1.559-1.321-0.239c0.055-0.109 0.133-0.414 0.239-0.922 0.109-0.453 0.269-0.691 0.48-0.718 0.375-0.055 0.586 0.187 0.641 0.718-0.028 0.614-0.039 1-0.039 1.161zm-8.442 3c-0.238-0.239-0.347-0.508-0.32-0.801 0.402-0.16 0.762-0.172 1.082-0.039 0.211 0.105 0.48 0.32 0.801 0.64l-0.762 0.602c-0.32-0.055-0.586-0.188-0.801-0.402zm13.36-0.801-1.918-1c0.105-0.266 0.386-0.52 0.839-0.758 0.454-0.242 0.813-0.266 1.079-0.082 0.242 0.187 0.336 0.48 0.281 0.883-0.027 0.105-0.121 0.426-0.281 0.957zm-34.68 1.562c0.109 0.078 0.242 0.145 0.402 0.2-0.269 0.05-0.508 0.105-0.722 0.16 0.828 0.531 1.468 0.84 1.921 0.918 0.079-0.239 0.067-0.493-0.039-0.758-0.054-0.16-0.16-0.387-0.32-0.68 0.504-0.297 1.184-0.387 2.039-0.281-0.347-0.242-0.613-0.426-0.801-0.559-0.32-0.242-0.492-0.496-0.519-0.761 0.055-0.055 0.105-0.094 0.16-0.121l-0.48-0.04c-0.293 0.215-0.493 0.387-0.598 0.52-0.375 0.613-0.695 1.055-0.961 1.32l-0.082 0.082zm3.723-5.082c-0.375 0.028-0.614 0.055-0.723 0.082-0.481 0.106-0.867 0.332-1.16 0.68-0.344 0.398-0.387 0.785-0.117 1.16 0.132 0.188 0.453 0.387 0.957 0.602 0.214 0.078 0.386 0.172 0.519 0.277h0.082c0.078-0.027 0.172-0.039 0.281-0.039-0.214-0.16-0.375-0.293-0.48-0.398-0.215-0.188-0.32-0.387-0.32-0.602-0.586-0.535-0.746-0.961-0.481-1.281 0.32-0.399 0.961-0.36 1.918 0.121-0.238-0.16-0.398-0.36-0.476-0.602zm-4.922 0c0.398-0.078 0.761-0.183 1.082-0.316-0.215 0.051-0.387 0.09-0.524 0.117-0.211 0.055-0.398 0.121-0.558 0.199zm16.281 5.723c-0.402-0.109-0.723 0.09-0.961 0.598l0.961-0.598z" inkscape:connector-curvature="0"/>
      <path id="path20" style="fill-rule:evenodd;fill:#6d7247" d="m81.16 2.481c-0.156 0.188-0.265 0.442-0.316 0.762 0 0.16 0.011 0.32 0.039 0.48 0-0.347 0.012-0.574 0.039-0.679 0.055-0.243 0.133-0.43 0.238-0.563zm14 5.762h0.223c-0.215-0.004-0.445-0.059-0.703-0.16 0.187 0.078 0.347 0.133 0.48 0.16zm-14.316 6.598c1.465 0.187 2.359 0.109 2.679-0.239l-2.281-1.359c0.906 0.215 1.813 0.348 2.719 0.398 0.961 0.082 1.547 0.039 1.762-0.117 0.05-0.187 0.011-0.43-0.121-0.723l-0.598-0.117c0.586-0.082 0.906-0.441 0.957-1.082-0.293-0.211-0.707-0.371-1.238-0.48-0.614-0.106-1.016-0.199-1.2-0.281 0 0.109-0.015 0.214-0.043 0.32l-1.078-0.117c-0.187-0.696-0.015-1.016 0.52-0.961 0.398 0.054 0.598 0.293 0.598 0.718 0.269-0.105 0.761-0.21 1.48-0.32 0.613-0.183 0.883-0.547 0.801-1.078-0.508-0.133-1.598-0.293-3.281-0.48 0.32-0.028 0.574-0.215 0.761-0.559 0.188-0.348 0.211-0.684 0.078-1l-0.199-0.281h-0.32l-0.078-0.282c-0.321-0.105-0.707-0.105-1.16 0-0.399 0.106-0.719 0.282-0.961 0.52 0.109-0.531-0.399-0.879-1.52-1.039-1.117-0.16-1.68 0.105-1.68 0.797-0.132-0.344-0.398-0.543-0.8-0.598-0.371-0.055-0.641 0.094-0.801 0.442-0.16 0.293-0.145 0.707 0.043 1.238 0.211 0.562 0.504 0.734 0.879 0.519 0 0.188 0.054 0.481 0.16 0.883 0.105 0.399 0.148 0.692 0.121 0.879l-1.32 0.039 2.879 1.481-0.04-0.559c-0.187-0.055-0.347-0.16-0.48-0.32-0.133-0.028-0.281-0.078-0.441-0.16-0.426-0.211-0.614-0.454-0.559-0.719 0.027-0.215 0.199-0.332 0.52-0.36v-0.082c0.238-0.05 0.453-0.011 0.64 0.121 0.266 0.055 0.481 0.149 0.637 0.282 0.055-0.242 0.082-0.602 0.082-1.082 0.082-0.215 0.227-0.305 0.441-0.282 0-0.05 0.012-0.105 0.039-0.16 0.399-0.05 0.829-0.011 1.282 0.121 0.027 0.106 0.039 0.2 0.039 0.282 0.242-0.055 0.465-0.039 0.679 0.039 0.055 0.906 0.094 1.574 0.121 2v0.199c-0.132 0.613-0.718 0.973-1.761 1.082l1.441 0.879-1.398-0.481-0.442-0.32-0.039-0.039h-0.043l0.082 0.039 0.719 0.559c0.16 0.215 0.402 0.828 0.723 1.84zm-16.922 3.402c0.64 0.801 1.055 1.773 1.238 2.918l0.121 1.043c0.293 0 0.574-0.11 0.84-0.321 0.375 0.532 0.774 0.813 1.199 0.84 0.43 0.051 0.657-0.187 0.684-0.722 0.023 1.679 0.758 2.722 2.199 3.121 0.586 0.16 1.078 0.121 1.481-0.121 0.105-0.051 0.183-0.118 0.238-0.2l-0.281-0.16c-0.399-0.32-0.504-0.64-0.317-0.961 0.266-0.425 0.371-0.785 0.317-1.078 0.187 0 0.535 0.012 1.043 0.039 0.425 0.055 0.757 0.055 1 0 0.132-0.343 0.093-0.785-0.122-1.32-0.238-0.691-0.374-1.133-0.398-1.32h0.481c0.05-0.719 0.011-1.2-0.122-1.438-0.187-0.347-0.613-0.508-1.281-0.48 0.426-0.028 1.121-0.028 2.082 0 0.852 0 1.508-0.094 1.957-0.282 0.11-0.503-0.156-0.894-0.797-1.16-0.8-0.238-1.32-0.425-1.562-0.558 0.242-0.348 0.387-0.746 0.441-1.2 0.055-0.558-0.093-0.96-0.441-1.203-0.133-0.105-0.371-0.156-0.719-0.156h-0.801c-0.078-0.43-0.132-1.094-0.16-2-0.293-0.215-0.652-0.16-1.078 0.156-0.426 0.403-0.719 0.684-0.883 0.844-0.051-0.293-0.105-0.629-0.156-1-0.109-0.215-0.414-0.293-0.922-0.242-0.293 0.027-0.625 0.226-1 0.601-0.371 0.348-0.68 0.532-0.918 0.559-0.027-0.051-0.043-0.48-0.043-1.281 0-0.692-0.078-1.16-0.238-1.399l-0.359 0.559-0.364-0.879c-0.16 0.027-0.277 0.133-0.359 0.32h0.16l-0.199 0.079c-0.133 0.375-0.16 0.988-0.082 1.839 0.054 1.016 0.082 1.563 0.082 1.645-0.266-0.375-0.481-0.629-0.641-0.762-0.265-0.238-0.574-0.293-0.918-0.16-0.082 0.32 0.039 1.027 0.36 2.121 0.293 1.012 0.359 1.625 0.199 1.84-0.481-0.695-0.762-1.094-0.84-1.199-0.402-0.453-0.801-0.696-1.199-0.723-0.27 0.774-0.067 1.574 0.597 2.402 0.403 0.454 1.028 1.094 1.883 1.918l-1.402-0.519zm4.082 3.519-0.082 0.52c0-0.399-0.027-0.691-0.082-0.879-0.797 0.531-1.348 0.504-1.637-0.082-0.269-0.559-0.148-1.184 0.359-1.879-0.453 0-0.707-0.281-0.761-0.84-0.078-0.48 0.121-0.761 0.601-0.84 0.239-0.054 0.664-0.066 1.278-0.039-0.371-0.402-0.637-0.722-0.797-0.961-0.27-0.453-0.27-0.812 0-1.082 0.183-0.211 0.437-0.265 0.758-0.156 0.347 0.106 0.507 0.317 0.48 0.637 0.906-0.184 1.441-0.227 1.602-0.117 0.32 0.211 0.398 0.664 0.238 1.359-0.106 0.504-0.281 0.961-0.52 1.359 0.161-0.054 0.414-0.121 0.762-0.199 0.293-0.082 0.547-0.082 0.758 0 0.266 0.719 0.441 1.293 0.519 1.719 0.133 0.773-0.117 1.176-0.757 1.199-0.188 0.906-1.055 1.36-2.602 1.36-0.078-0.317-0.117-0.68-0.117-1.079zm-0.16-7.679c-0.321-0.348-0.414-0.785-0.282-1.321 0.454-0.082 0.708 0.106 0.758 0.563l-0.476 0.758zm2.476-0.52c0.133-0.426 0.442-0.535 0.922-0.32 0.051 0.824 0.094 1.437 0.117 1.84l-1.078-0.321c-0.078-0.507-0.066-0.906 0.039-1.199zm2.481 2.68c0.668 0.055 0.922 0.426 0.761 1.121l-1.878-0.402c0.105-0.559 0.476-0.801 1.117-0.719zm-8.641-12.242c0-0.371 0.028-0.653 0.082-0.84 0.133-0.559 0.414-1.094 0.84-1.598 0.398-0.48 0.813-0.762 1.242-0.84-0.535 0.078-1.054 0.481-1.562 1.2-0.481 0.746-0.68 1.441-0.602 2.078zm-11.637-0.758h0.317c-0.348-0.055-0.664-0.039-0.957 0.039 0.187-0.027 0.398-0.039 0.64-0.039zm-15.402-1.242c-1.332 0.16-1.785 1.043-1.359 2.64-0.239-0.613-0.653-1.078-1.239-1.398 0.079 0.051 0.161 0.105 0.239 0.16 0.426 0.348 0.761 0.758 1 1.238h0.039c-0.211-0.746-0.16-1.359 0.16-1.84 0.187-0.293 0.48-0.531 0.883-0.718 0.078-0.028 0.172-0.055 0.277-0.082zm1.801 0.203c0.082 0.051 0.172 0.105 0.281 0.16 0.133 0.078 0.266 0.172 0.399 0.277-0.215-0.187-0.442-0.332-0.68-0.437zm-17.16 1.277c-0.321-0.426-0.348-0.851-0.078-1.277 0.265-0.403 0.703-0.696 1.32-0.883 0.344-0.133 0.703-0.199 1.078-0.199 0.668 0 1.266 0.172 1.801 0.519-1.199-0.828-2.426-0.812-3.68 0.039-0.906 0.614-1.055 1.215-0.441 1.801zm-18.641 3.602c1.016-0.559 2.16-1.067 3.441-1.52 1.04-0.375 1.934-0.601 2.68-0.68 0.801-0.109 1.281-0.015 1.442 0.282-0.297-0.59-1.657-0.469-4.082 0.359-1.625 0.559-2.84 1.09-3.641 1.598 0.055 0 0.109-0.012 0.16-0.039zm8 3.597c0.293 0.403 0.922 0.215 1.883-0.558 0.773-0.641 1.73-1.531 2.879-2.68l-1.039 0.961c-0.989 0.453-1.762 0.598-2.321 0.438 0.532-0.344 0.864-0.586 1-0.719 0.348-0.321 0.493-0.653 0.438-1-0.824 0.054-1.52 0.254-2.078 0.601 0.051-0.187 0.039-0.492-0.039-0.922-0.828 0.161-1.348 0.508-1.563 1.043 0.106-0.562 0.082-0.906-0.078-1.043-0.265 0.215-0.496 0.364-0.68 0.442l-0.082-0.281c-0.238 0.132-0.558 0.402-0.961 0.8 0-0.425-0.105-0.746-0.32-0.961-0.238 0.11-0.41 0.309-0.519 0.602-0.051 0.375-0.106 0.641-0.161 0.801-0.265 0.027-0.453 0.027-0.558 0l-0.039 1.16c-0.481-0.27-0.906-0.281-1.281-0.043-0.028 0.43 0.187 0.762 0.64 1 0.453 0.027 1.227-0.066 2.32-0.281-0.187-0.211-0.148-0.426 0.122-0.637 0.265-0.187 0.519-0.215 0.757-0.082-0.187-0.16-0.304-0.359-0.359-0.598-0.055-0.269 0.027-0.496 0.238-0.683 0.43-0.348 0.735-0.25 0.922 0.281 0.106 0.293 0.227 0.691 0.36 1.199 0.054 0.055 0.16 0.055 0.32 0-0.106 0.613-0.36 1.094-0.762 1.442-0.078 0.05-0.144 0.105-0.199 0.16 0.508-0.266 0.84-0.813 1-1.641v0.043c0.187-0.055 0.336 0 0.441 0.156 0.215 0.348 0.121 0.684-0.281 1zm-1.641 0.563c-0.132 0-0.253-0.039-0.359-0.121l-0.277-0.598-0.082-0.523c0.027 0.882 0.265 1.293 0.718 1.242zm6.641-2.281c0.293-0.239 0.656-0.52 1.082-0.84-0.109 0-0.199-0.082-0.281-0.242-0.078-0.157-0.188-0.223-0.32-0.2l-0.68 0.243c0.027 0.105 0.055 0.214 0.082 0.32 0.078 0.32 0.117 0.558 0.117 0.719zm7.441 4.902c0.028 0.125 0.04 0.25 0.04 0.379 0.027-0.055 0.066-0.16 0.121-0.32-0.055 0-0.094-0.012-0.121-0.04-0.02 0-0.032-0.007-0.04-0.019zm-0.839-1.063c-0.028-0.105-0.028-0.21 0-0.32 0.347-0.105 0.707-0.183 1.078-0.238v-0.039c-0.024-0.75 0.402-1.215 1.281-1.403 0.559-0.132 0.934 0.067 1.121 0.602 0.106 0.32 0.16 0.891 0.16 1.719 0.051-0.321 0.172-0.574 0.36-0.758 0.215-0.242 0.465-0.336 0.757-0.281 0.082 0.508 0.094 1.093 0.043 1.758 0.293-0.665 0.84-1.145 1.637-1.438 0.801-0.293 1.043 0.023 0.723 0.957 0.051 0.027 0.344 0.109 0.879 0.242 0.375 0.106 0.586 0.278 0.64 0.52 0.16 0.508-0.281 0.89-1.32 1.16 0.668-0.055 1 0.172 1 0.68 0 0.425-0.332 0.707-1 0.839-0.613 0.055-1.055 0.079-1.32 0.079 0.265 0.027 0.48 0.187 0.64 0.48 0.215 0.348 0.215 0.707 0 1.082-0.214 0.32-0.601 0.52-1.16 0.598-0.558 0.082-0.922-0.051-1.082-0.399 0.11 0.641-0.039 0.922-0.437 0.84-0.375-0.055-0.719-0.281-1.039-0.68-0.082 0.559-0.282 0.922-0.602 1.079-0.266 0.136-0.559 0.093-0.879-0.118-0.16 1.414 0.359 2.118 1.559 2.118 1.308 0.027 2.121-0.664 2.441-2.079-0.242 1.172 0.039 1.813 0.84 1.922 0.746 0.078 1.348-0.203 1.801-0.843 0.316 0.562 0.691 0.855 1.117 0.882 0.48 0.051 0.855-0.308 1.121-1.082 0.266 0.188 0.52 0.293 0.762 0.321 0.398-0.532 0.558-1.188 0.476-1.961-0.05-0.746-0.304-1.36-0.758-1.84 0.852 0.562 1.575 0.297 2.161-0.797 0.132-0.27 0.293-0.707 0.48-1.32-0.242 0.691-0.441 1.187-0.601 1.48-0.266 0.051-0.481 0.039-0.641-0.039 0.402-0.453 0.562-0.91 0.48-1.363-0.105-0.481-0.425-0.692-0.961-0.637 0.188-0.109 0.309-0.269 0.364-0.484 0.051-0.184 0.027-0.371-0.082-0.559-0.188-0.293-0.692-0.32-1.52-0.078 0.215-0.27 0.281-0.508 0.199-0.723-0.05-0.156-0.187-0.265-0.398-0.316 1.277-0.934 1.812-1.801 1.598-2.602-0.481 0.028-0.813 0.106-1 0.239-0.024-0.239-0.039-0.653-0.039-1.239-0.028-0.507-0.2-0.828-0.52-0.961-0.238-0.105-0.559-0.078-0.961 0.082-0.32 0.161-0.598 0.36-0.84 0.598 0.082-0.801 0.082-1.586 0-2.359-1.093 0-1.867 0.336-2.32 1 0.242-0.586 0.281-1.172 0.121-1.758-0.266-0.027-0.535 0.078-0.801 0.316-0.293 0.297-0.519 0.508-0.679 0.645-0.028-0.215-0.04-0.524-0.04-0.922-0.027-0.32-0.148-0.535-0.359-0.641-0.242-0.132-0.601-0.05-1.082 0.243-0.398 0.238-0.719 0.503-0.961 0.796 0.028-0.105 0-0.32-0.078-0.636-0.238-0.082-0.48-0.055-0.719 0.078l-0.043 0.398-0.039-0.078c-0.347-0.105-0.679-0.066-1 0.117-0.054 0.43-0.039 0.735 0.039 0.922-0.16-0.293-0.382-0.508-0.679-0.64-0.266-0.133-0.52-0.161-0.758-0.082 0.078 0.136 0.121 0.296 0.121 0.484v0.199l-0.16 0.078h-0.16c0.078 0.242 0.238 0.442 0.476 0.602-0.957-0.481-1.598-0.52-1.918-0.121-0.265 0.32-0.105 0.746 0.481 1.281-0.028-0.16 0.039-0.332 0.199-0.52 0.855 0.161 1.414 0.708 1.68 1.641l-0.52 0.359c-0.215-0.187-0.398-0.347-0.559-0.48-0.109 0-0.203 0.012-0.281 0.039h-0.082c0.188 0.16 0.309 0.332 0.363 0.52l-1.441-0.121c-0.055 0.027-0.105 0.07-0.16 0.121 0.027 0.265 0.199 0.519 0.519 0.761 0.188 0.133 0.454 0.317 0.801 0.559-0.851-0.106-1.535-0.016-2.039 0.281 0.16 0.293 0.266 0.52 0.32 0.68 0.106 0.265 0.118 0.519 0.039 0.758-0.453-0.078-1.093-0.387-1.921-0.918h-0.039c-0.375 0.425-0.707 0.734-1 0.918l-0.282 0.203c-0.371 0.344-0.718 0.679-1.039 1 0.028 0.211 0.106 0.453 0.242 0.719 0.747-0.293 1.438-0.149 2.079 0.441 0.613 0.586 1.308 0.73 2.082 0.437-0.883 0.774-1.27 1.575-1.161 2.403 0.852-0.028 1.946-0.574 3.278-1.641l-0.078 0.039c-0.907-0.293-1.481-0.547-1.719-0.761 0.156-0.239 0.519-0.383 1.078-0.438 0.32-0.027 0.734-0.039 1.238-0.039-0.293-0.402-0.504-0.707-0.636-0.922-0.215-0.375-0.204-0.734 0.039-1.078 0.347-0.453 0.679-0.641 1-0.563zm1.519 6.68-0.199 0.199c-0.242-0.211-0.375-0.453-0.402-0.718-0.051-0.266 0.043-0.504 0.281-0.719l0.359-1.082c-0.851 0.187-1.664 0.269-2.437 0.242l-0.043-0.199c0.293-0.137 0.48-0.242 0.562-0.321-0.16-0.136-0.347-0.214-0.562-0.242-0.051 0.188-0.051 0.414 0 0.68 0.082 0.32 0.121 0.535 0.121 0.641l0.238 0.039c-0.316 0.855-0.293 1.562 0.082 2.121 0.426 0.586 1.094 0.375 2-0.641zm17.918-9.117c-0.156 0.16-0.238 0.41-0.238 0.758 0.027 0.48 0.027 0.773 0 0.879-0.695 0.082-1.106 0.136-1.238 0.16 0.078 0.347 0.265 0.719 0.558 1.121 0.16 0.242 0.414 0.574 0.762 1-0.617-0.106-1.121-0.094-1.524 0.039-0.105 0.641 0.188 1.402 0.883 2.281l-1.679 0.36c0 0.082 0.011 0.148 0.039 0.199 0.824 0.187 1.504 0.055 2.039-0.399-0.239 0.801-0.293 1.934-0.16 3.399-0.293 0.269-0.465 0.629-0.52 1.082-0.055 0.48 0.039 0.945 0.281 1.398 0.852 0.082 1.547-0.304 2.078-1.16-0.132 0.961 0.36 1.977 1.481 3.043 0.906-0.375 1.348-1.269 1.32-2.683 0.028 0.32 0.121 0.64 0.281 0.96 0 0.028 0.184 0.336 0.559 0.922 0.398-0.132 0.719-0.441 0.961-0.922 0.027-0.027 0.211-0.464 0.559-1.32 0.105 0.988 0.507 1.629 1.199 1.922 0.668 0.32 1.387 0.172 2.16-0.441l-0.598 0.359c-0.91 0.082-1.574-0.023-2-0.32 0.184-0.106 0.465-0.321 0.84-0.637 0.371-0.348 0.641-0.563 0.801-0.641 0.156-0.082 0.465-0.109 0.918-0.082 0.398 0.028 0.707-0.05 0.918-0.238 0.508-0.426 0.64-0.922 0.402-1.48-0.215-0.481-0.64-0.801-1.281-0.961 0.828 0.105 1.492 0.015 2-0.282 0.613-0.316 0.773-0.839 0.48-1.558-1.121-0.078-1.761-0.145-1.918-0.199 1.438-0.481 1.891-1.055 1.36-1.719-0.188-0.215-0.535-0.321-1.043-0.321-0.586 0.079-0.985 0.106-1.199 0.079 0.695-0.239 1.16-0.52 1.402-0.84 0.293-0.399 0.371-0.918 0.238-1.559-0.828 0.16-1.386 0.305-1.679 0.442 0.375-0.243 0.64-0.629 0.8-1.161 0.211-0.668 0.09-1.132-0.359-1.402-0.32-0.184-0.773-0.16-1.363 0.082-0.426 0.188-0.825 0.442-1.2 0.758-0.027-0.106-0.039-0.359-0.039-0.758 0-0.32-0.039-0.574-0.121-0.762-0.586 0-1.066 0.309-1.437 0.922-0.082-0.32-0.121-0.773-0.121-1.359-1.067-0.188-1.828 0.172-2.282 1.078-0.371-0.879-0.746-1.254-1.121-1.121-0.343 0.109-0.547 0.601-0.597 1.484-0.188-0.269-0.414-0.453-0.68-0.562-0.293-0.133-0.574-0.094-0.84 0.121l-0.082 0.039zm17.203 13.879c-0.48-0.426-0.496-0.735-0.043-0.922 0.403-0.16 0.84-0.199 1.321-0.117 0.132 0.398 0.066 0.746-0.2 1.039h-1.078zm1.16 1.121c0.106-0.109 0.25-0.109 0.438 0 0.133 0.426 0.16 0.769 0.082 1.039l-0.563-0.562c-0.05-0.184-0.039-0.344 0.043-0.477zm-3.601-1.281c-0.055-1.52-0.067-2.442-0.039-2.762 0.453 0.055 0.773 0.414 0.957 1.082 0.137 0.48 0.187 1 0.16 1.559l-0.879 0.199c0.027 0.562 0.055 0.972 0.082 1.242 0.481-0.668 0.945-0.746 1.399-0.242 0.48 0.48 0.441 1-0.122 1.562 0.161 0.133 0.415 0.321 0.762 0.559 0.238 0.242 0.32 0.508 0.238 0.801-0.476 0.133-0.839 0.215-1.078 0.238-0.445 0.027-0.687-0.152-0.718-0.539 0.019 0.391-0.114 0.664-0.403 0.82-0.293 0.16-0.613 0.199-0.961 0.121 0.028 0.371 0.082 0.735 0.16 1.078 0.375-0.027 0.723-0.144 1.043-0.359 0.024 0.082 0.157 0.281 0.399 0.602 0.215 0.265 0.332 0.531 0.359 0.797 0.746 0.136 1.387-0.2 1.922-1 0.238-0.372 0.559-1.106 0.957-2.2-0.051 1.547 0.391 2.387 1.32 2.52 0.055-0.586 0.043-1.332-0.039-2.238-0.05-0.508-0.132-1.266-0.238-2.282l0.16-0.918c0.266 0.184 0.547 0.305 0.84 0.36-0.082-0.348-0.121-0.867-0.121-1.559-0.453-0.109-1.16-0.043-2.121 0.199-0.023-0.215-0.023-0.586 0-1.121 0-0.48-0.106-0.812-0.316-1-0.215-0.187-0.668-0.172-1.364 0.039-0.719 0.266-1.172 0.43-1.359 0.481-0.051-1.012-0.09-1.559-0.117-1.641-0.133-0.746-0.469-1.117-1-1.117 0.238 0.266-0.016 0.637-0.762 1.117-0.32 1.067-0.492 1.629-0.52 1.68l-0.121-0.16c-0.187 0.297-0.625 0.562-1.32 0.8-0.668 0.243-1.387 0.403-2.16 0.481-0.051 0.398-0.184 0.851-0.399 1.359-0.32 0.774-0.507 1.336-0.562 1.68 0.617 0.641 1.293 0.68 2.043 0.121-0.563 1.281-0.293 2.066 0.801 2.359 0.933 0.293 1.691 0.133 2.277-0.48-0.105 0.109-0.211 0.187-0.316 0.242-0.348-0.265-0.442-0.535-0.282-0.801-0.746 0.161-1.308 0.2-1.679 0.121 0.023-0.535 0.41-0.988 1.156-1.359-0.934 0.133-1.316-0.094-1.156-0.683 0.211-0.211 0.519-0.333 0.918-0.36 0.398-0.023 0.746 0.027 1.039 0.16 0.082-0.824 0.133-1.25 0.16-1.277 0.105-0.215 0.441-0.309 1-0.281zm-13.68-9.403c-0.027-0.078-0.054-0.172-0.082-0.277 0.028-0.027 0.067-0.039 0.121-0.039 0-0.215-0.011-0.453-0.039-0.723 0.028-0.316 0.266-0.531 0.719-0.64 0.426-0.106 0.723-0.067 0.883 0.121 0.105 0.133 0.183 0.441 0.238 0.918 0.078-0.559 0.535-1.012 1.359-1.36 0.747-0.293 1.414-0.398 2-0.316 0.106 0.773 0.082 1.586-0.078 2.437 0.532-0.265 0.907-0.437 1.117-0.519 0.481-0.133 0.829-0.039 1.043 0.281 0.266 0.426 0.145 0.879-0.363 1.36-0.105 0.105-0.222 0.199-0.359 0.281 0.375 0.133 0.64 0.265 0.801 0.398 0.32 0 0.586 0.028 0.8 0.082 0.051 0.879 0.067 1.453 0.039 1.719-0.187 0.027-0.824 0.039-1.918 0.039 0.637 0.215 0.786 0.52 0.438 0.922-0.32 0.398-0.734 0.586-1.238 0.559l-1.442-0.961c0.082 0.32-0.226 0.789-0.918 1.402-0.668 0.613-1.121 0.852-1.359 0.719-0.297-0.188-0.336-0.52-0.121-1 0.133-0.293 0.32-0.668 0.558-1.121-0.961 0.187-1.613 0.254-1.961 0.203-0.16-0.481 0.215-1.016 1.122-1.602-0.028-0.027-0.586-0.254-1.68-0.68-0.801-0.32-1.215-0.679-1.238-1.082-0.082-0.613 0.437-0.957 1.558-1.039v-0.082zm0.399-8.277 0.043-0.16-0.043-0.199v0.359zm-19.36-2.922v0.082l0.082-0.121-0.082 0.039zm-7.437 9.16c0.238-0.183 0.453-0.359 0.636-0.519-0.05 0.027-0.105 0.043-0.16 0.043-0.16 0.183-0.316 0.343-0.476 0.476zm10.519-4.398c0.239-0.32 0.52-0.442 0.84-0.36 0.32 0.051 0.492 0.293 0.52 0.719l-1.321 1c-0.105-0.773-0.121-1.226-0.039-1.359zm-2.679-0.121c-0.321-0.321-0.414-0.746-0.282-1.281 0.321-0.051 0.586 0.082 0.801 0.402l-0.519 0.879zm8.359 4.242-0.961 0.598c0.238-0.508 0.559-0.707 0.961-0.598z" inkscape:connector-curvature="0"/>
      <path id="path22" style="fill-rule:evenodd;fill:#848958" d="m68.004 21.762c0 0.399 0.039 0.762 0.117 1.079 1.547 0 2.414-0.45 2.602-1.36 0.64-0.023 0.89-0.426 0.757-1.199-0.078-0.426-0.253-1-0.519-1.719-0.211-0.082-0.465-0.082-0.758 0-0.348 0.078-0.601 0.145-0.762 0.199 0.243-0.398 0.414-0.855 0.52-1.359 0.16-0.695 0.082-1.148-0.238-1.359-0.161-0.11-0.696-0.067-1.602 0.117 0.027-0.32-0.133-0.531-0.48-0.637-0.321-0.109-0.575-0.055-0.758 0.156-0.27 0.27-0.27 0.629 0 1.082 0.16 0.239 0.426 0.559 0.797 0.961-0.614-0.027-1.039-0.015-1.278 0.039-0.48 0.079-0.679 0.36-0.601 0.84 0.054 0.559 0.308 0.84 0.761 0.84-0.507 0.695-0.628 1.32-0.359 1.879 0.289 0.586 0.84 0.613 1.637 0.082 0.055 0.188 0.082 0.48 0.082 0.879l0.082-0.52zm11.316-9.359h0.043l0.438-0.039c1.043-0.109 1.629-0.469 1.761-1.082v-0.199c-0.027-0.426-0.066-1.094-0.121-2-0.214-0.082-0.437-0.094-0.679-0.043 0.027 0.215 0.027 0.375 0 0.484l-1.039 0.156c-0.27-0.265-0.375-0.558-0.321-0.879-0.214-0.027-0.359 0.067-0.441 0.282 0 0.48-0.023 0.84-0.078 1.078-0.16-0.133-0.375-0.227-0.641-0.281 0.028 0.027 0.051 0.054 0.078 0.082 0.215 0.16 0.336 0.386 0.36 0.679l0.281 0.84c-0.133 0-0.266-0.023-0.399-0.078l0.04 0.559v0.402l0.718 0.039zm-1.718-2.562c-0.321 0.027-0.493 0.148-0.52 0.363-0.055 0.265 0.133 0.504 0.559 0.719 0.16 0.078 0.308 0.132 0.441 0.16l-0.16-0.16c-0.238-0.348-0.348-0.707-0.32-1.082zm-69.04 0.203c0.051 0 0.122-0.016 0.2-0.043l0.082 0.523 0.277 0.598c0.106 0.082 0.227 0.121 0.359 0.121 0.137 0.023 0.297-0.016 0.481-0.121 0.055-0.055 0.121-0.106 0.199-0.16 0.402-0.348 0.656-0.825 0.762-1.438-0.16 0.051-0.266 0.051-0.32 0-0.133-0.508-0.254-0.91-0.36-1.203-0.187-0.531-0.492-0.625-0.922-0.281-0.211 0.187-0.293 0.414-0.238 0.683 0.055 0.239 0.172 0.438 0.359 0.598-0.238-0.133-0.492-0.105-0.757 0.082-0.27 0.211-0.309 0.426-0.122 0.641zm2.559 0.636c0.402-0.316 0.496-0.652 0.281-1-0.105-0.156-0.254-0.211-0.441-0.156-0.051 0.586 0 0.973 0.16 1.156zm13.082 9.082c0.32 0.215 0.613 0.254 0.879 0.121 0.32-0.16 0.52-0.519 0.602-1.082 0.32 0.403 0.664 0.629 1.039 0.68 0.398 0.082 0.547-0.199 0.437-0.84 0.16 0.348 0.524 0.481 1.082 0.403 0.559-0.082 0.946-0.282 1.16-0.602 0.215-0.371 0.215-0.734 0-1.078-0.16-0.297-0.375-0.457-0.64-0.481 0.265 0 0.707-0.027 1.32-0.082 0.668-0.132 1-0.414 1-0.839 0-0.508-0.332-0.735-1-0.68 1.039-0.266 1.48-0.652 1.32-1.16-0.054-0.242-0.265-0.414-0.64-0.52-0.535-0.133-0.828-0.215-0.879-0.238 0.32-0.934 0.078-1.254-0.723-0.961-0.797 0.293-1.344 0.773-1.637 1.438 0.051-0.665 0.039-1.25-0.043-1.758-0.292-0.055-0.546 0.039-0.757 0.281-0.188 0.184-0.309 0.437-0.36 0.758 0-0.824-0.054-1.399-0.16-1.719-0.187-0.535-0.562-0.734-1.121-0.602-0.879 0.188-1.305 0.657-1.281 1.403v0.039c0.242-0.027 0.48-0.039 0.722-0.039 0.133 0.797 0.426 1.277 0.879 1.437l-0.199 1.082c-0.723-0.347-1.215-0.613-1.48-0.8-0.055 0.16-0.094 0.265-0.121 0.32 0-0.129-0.012-0.254-0.04-0.383v-0.019c-0.48-0.317-0.761-0.665-0.839-1.04-0.321-0.078-0.653 0.11-1 0.563-0.243 0.344-0.254 0.703-0.039 1.078 0.132 0.215 0.343 0.52 0.636 0.922-0.504 0-0.918 0.012-1.238 0.039-0.559 0.051-0.922 0.199-1.078 0.438 0.238 0.214 0.812 0.468 1.719 0.761l0.078-0.039-0.039 0.078h0.039c0.215 0.028 0.402 0.106 0.562 0.242-0.082 0.079-0.269 0.184-0.562 0.321l0.043 0.199c0.773 0.027 1.586-0.055 2.437-0.242l-0.359 1.082c-0.238 0.215-0.332 0.453-0.281 0.719 0.027 0.265 0.16 0.507 0.402 0.718l0.199-0.199c-0.027 0.11-0.039 0.199-0.039 0.281zm32.719 4.321c-0.559-0.028-0.895 0.066-1 0.281-0.027 0.023-0.082 0.449-0.16 1.277-0.293-0.133-0.641-0.183-1.039-0.16-0.403 0.027-0.707 0.149-0.922 0.36-0.16 0.589 0.226 0.816 1.16 0.683-0.746 0.371-1.133 0.824-1.16 1.359 0.375 0.079 0.933 0.04 1.679-0.121-0.156 0.266-0.066 0.536 0.282 0.801 0.109-0.055 0.215-0.133 0.32-0.242 0.055-0.051 0.106-0.117 0.16-0.199l0.039 0.601h0.039c0.348 0.078 0.668 0.039 0.961-0.121 0.289-0.156 0.422-0.429 0.399-0.82 0.035 0.387 0.277 0.566 0.722 0.539 0.239-0.023 0.602-0.105 1.078-0.238 0.082-0.293 0-0.559-0.238-0.801-0.347-0.238-0.601-0.426-0.762-0.559 0.563-0.562 0.602-1.082 0.122-1.562-0.454-0.504-0.918-0.426-1.399 0.242-0.027-0.266-0.055-0.68-0.082-1.242l-0.199 0.082v-0.16zm-2.199 1.64c0.238-0.187 0.547-0.187 0.918 0 0.293 0.133 0.574 0.36 0.839 0.68h-0.8c-0.317-0.187-0.637-0.414-0.957-0.68zm-4.121-9.121c0.375 0.321 0.16 0.602-0.641 0.84l-1.641-0.441c-0.211-0.957 0.282-1.227 1.481-0.797 0.137-0.082 0.254-0.176 0.359-0.281 0.508-0.481 0.629-0.934 0.363-1.36-0.214-0.32-0.562-0.414-1.043-0.281-0.21 0.082-0.585 0.254-1.117 0.519 0.16-0.851 0.184-1.668 0.078-2.441-0.586-0.078-1.253 0.027-2 0.32-0.824 0.348-1.281 0.801-1.359 1.36-0.055-0.481-0.133-0.785-0.238-0.918-0.16-0.188-0.453-0.227-0.883-0.121-0.453 0.109-0.691 0.32-0.719 0.64 0.028 0.266 0.039 0.508 0.039 0.719 0.856-0.293 1.629 0.094 2.321 1.16l-0.52 0.043c-0.453 0-0.855-0.094-1.199-0.281-0.293-0.16-0.508-0.359-0.641-0.602v0.082c-1.121 0.079-1.64 0.426-1.558 1.039 0.023 0.399 0.437 0.762 1.238 1.079 1.094 0.429 1.652 0.656 1.68 0.683-0.907 0.586-1.282 1.117-1.122 1.598 0.348 0.055 1-0.012 1.961-0.199-0.238 0.453-0.425 0.828-0.558 1.121-0.215 0.48-0.176 0.812 0.121 1 0.238 0.133 0.691-0.11 1.359-0.723 0.692-0.613 1-1.078 0.918-1.398l1.442 0.961c0.504 0.023 0.918-0.161 1.238-0.563 0.348-0.398 0.199-0.703-0.438-0.918 1.094 0 1.731-0.016 1.918-0.039 0.028-0.27 0.016-0.84-0.039-1.723-0.214-0.05-0.48-0.078-0.8-0.078zm-3.961-2.199c0-0.16-0.012-0.387-0.039-0.68 0-0.242 0.027-0.453 0.082-0.64 0.371 0.027 0.613 0.199 0.718 0.519 0.055 0.211 0.067 0.559 0.039 1.039l-0.8-0.238z" inkscape:connector-curvature="0"/>
      <path id="path24" style="fill-rule:evenodd;fill:#939865" d="m83.523 10.801c0-0.425-0.203-0.664-0.601-0.718-0.535-0.055-0.707 0.265-0.52 0.961l1.078 0.117c0.028-0.106 0.043-0.211 0.043-0.32v-0.04zm-10.722 5.442c-0.641-0.082-1.012 0.16-1.117 0.719l1.878 0.402c0.161-0.695-0.093-1.066-0.761-1.121zm-2.481-2.68c-0.105 0.293-0.117 0.692-0.039 1.199l1.082 0.321c-0.027-0.403-0.07-1.016-0.121-1.84-0.48-0.215-0.789-0.106-0.922 0.32zm-2.476 0.52 0.476-0.762c-0.05-0.453-0.304-0.641-0.758-0.559-0.132 0.532-0.039 0.973 0.282 1.321zm10.398-4.2c-0.187-0.132-0.398-0.175-0.64-0.121v0.082c-0.028 0.372 0.082 0.731 0.32 1.079l0.16 0.16c0.133 0.16 0.293 0.265 0.48 0.32 0.133 0.055 0.266 0.078 0.399 0.078l-0.277-0.84c-0.028-0.293-0.149-0.519-0.36-0.679-0.031-0.028-0.054-0.051-0.082-0.079zm2.52-0.839c0-0.082-0.012-0.176-0.039-0.282-0.453-0.132-0.883-0.171-1.282-0.121-0.027 0.055-0.039 0.11-0.039 0.16-0.054 0.321 0.051 0.614 0.321 0.879l1.039-0.156c0.027-0.109 0.027-0.269 0-0.48zm-23.84 15.039v0.16l0.199-0.082 0.883-0.199c0.023-0.559-0.027-1.079-0.16-1.559-0.188-0.668-0.508-1.027-0.961-1.082-0.028 0.32-0.016 1.242 0.039 2.762zm3.601 1.281c-0.082 0.133-0.093 0.293-0.043 0.477l0.563 0.562c0.078-0.266 0.051-0.613-0.082-1.039-0.184-0.109-0.332-0.109-0.438 0zm-1.16-1.121h1.078c0.27-0.293 0.336-0.641 0.2-1.039-0.481-0.082-0.918-0.043-1.317 0.117-0.457 0.187-0.441 0.496 0.039 0.922zm-4.64 1.48c0.32 0.266 0.64 0.493 0.961 0.68h0.796c-0.265-0.32-0.542-0.547-0.839-0.68-0.371-0.187-0.68-0.187-0.918 0zm-11.442-11.359c-0.054 0-0.093 0.012-0.121 0.039 0.028 0.105 0.055 0.199 0.082 0.277 0.133 0.243 0.348 0.442 0.641 0.602 0.344 0.187 0.746 0.281 1.199 0.281l0.52-0.039c-0.692-1.07-1.465-1.457-2.321-1.16zm7.321 2.238c-0.161-0.133-0.426-0.265-0.801-0.398-1.199-0.43-1.692-0.16-1.481 0.797l1.641 0.441c0.801-0.238 1.016-0.519 0.641-0.84zm-3.961-2.199 0.8 0.238c0.028-0.48 0.016-0.824-0.039-1.039-0.105-0.32-0.347-0.492-0.718-0.519-0.055 0.187-0.082 0.398-0.082 0.64 0.027 0.293 0.039 0.52 0.039 0.68zm-25.918-6c0 0.211 0.105 0.414 0.32 0.598 0.105 0.109 0.266 0.242 0.48 0.402 0.161 0.133 0.348 0.293 0.559 0.48l0.52-0.359c-0.266-0.933-0.825-1.48-1.68-1.641-0.16 0.184-0.227 0.36-0.199 0.52zm2 4.398c0.078 0.375 0.359 0.723 0.839 1.04v0.023c0.008 0.012 0.02 0.016 0.04 0.016 0.027 0.027 0.066 0.043 0.121 0.043 0.265 0.187 0.757 0.453 1.48 0.8l0.199-1.082c-0.453-0.16-0.746-0.64-0.879-1.441-0.242 0-0.48 0.016-0.722 0.043-0.371 0.051-0.731 0.133-1.078 0.238-0.028 0.11-0.028 0.215 0 0.32zm1.961-4.679 0.519-0.879c-0.215-0.32-0.48-0.453-0.801-0.402-0.132 0.535-0.039 0.96 0.282 1.281zm2.679 0.121c-0.082 0.133-0.066 0.586 0.039 1.359l1.321-1c-0.028-0.426-0.2-0.668-0.52-0.719-0.32-0.082-0.601 0.04-0.84 0.36z" inkscape:connector-curvature="0"/>
    </g>
  </g>
<metadata><rdf:RDF><cc:Work><dc:format>image/svg+xml</dc:format><dc:type rdf:resource="http://purl.org/dc/dcmitype/StillImage"/><cc:license rdf:resource="http://creativecommons.org/licenses/publicdomain/"/><dc:publisher><cc:Agent rdf:about="http://openclipart.org/"><dc:title>Openclipart</dc:title></cc:Agent></dc:publisher></cc:Work><cc:License rdf:about="http://creativecommons.org/licenses/publicdomain/"><cc:permits rdf:resource="http://creativecommons.org/ns#Reproduction"/><cc:permits rdf:resource="http://creativecommons.org/ns#Distribution"/><cc:permits rdf:resource="http://creativecommons.org/ns#DerivativeWorks"/></cc:License></rdf:RDF></metadata></svg>
